<svg width="32" height="26" viewBox="0 0 32 26" fill="none" xmlns="http://www.w3.org/2000/svg">
<path d="M11.9381 26C10.5544 26 9.13006 25.8888 7.69721 25.6658C5.17354 25.2727 2.61888 23.9622 1.89598 23.5698L0 22.5407L2.05272 21.8705C4.2966 21.1381 5.66158 20.6837 7.35126 19.9721C5.65938 19.1587 4.35544 17.6955 3.72775 15.8041L3.25022 14.3649L3.64182 14.4243C3.27048 14.0527 2.97727 13.6756 2.74998 13.3326C1.94164 12.1138 1.51366 10.6244 1.60472 9.3481L1.69457 8.09191L2.45213 8.38323C2.13255 7.7841 1.9016 7.14425 1.76586 6.47362C1.43505 4.83812 1.7119 3.10058 2.54563 1.58117L3.20554 0.378543L4.0881 1.43091C6.87934 4.75959 10.4147 6.73416 14.6107 7.31221C14.4393 6.13939 14.5678 5.00753 14.9928 3.99298C15.4877 2.81168 16.368 1.80997 17.538 1.09595C18.8373 0.303167 20.4129 -0.0809868 21.9747 0.0142639C23.6317 0.115331 25.136 0.731673 26.3309 1.79785C26.9143 1.64734 27.3443 1.48665 27.9253 1.26949C28.2749 1.13885 28.6714 0.990523 29.1675 0.820865L30.9956 0.195555L29.8035 3.57562C29.8821 3.56908 29.9632 3.5635 30.0479 3.55987L32 3.47213L30.8462 5.03758C30.78 5.12726 30.7632 5.15271 30.7398 5.18785C30.6467 5.32697 30.531 5.50002 28.9473 7.59942C28.5508 8.12511 28.3528 8.8098 28.3897 9.5277C28.5301 12.2558 28.1929 14.7241 27.387 16.8637C26.6248 18.888 25.4437 20.6248 23.8768 22.0259C21.9378 23.7593 19.4654 24.9462 16.528 25.5531C15.087 25.8507 13.5397 26 11.9381 26Z" fill="white"/>
</svg>
