<svg width="27" height="26" viewBox="0 0 27 26" fill="none" xmlns="http://www.w3.org/2000/svg">
<path d="M22.8932 0.000732422H4.51917C2.42029 0.000732422 0.712402 1.70862 0.712402 3.8075V22.1815C0.712402 24.2804 2.42029 25.9883 4.51917 25.9883H22.8932C24.9921 25.9883 26.6999 24.2804 26.6999 22.1815V3.8075C26.6999 1.70862 24.9921 0.000732422 22.8932 0.000732422ZM13.7569 19.7959C9.97851 19.7959 6.90475 16.7222 6.90475 12.9437C6.90475 9.16533 9.97851 6.09156 13.7569 6.09156C17.5353 6.09156 20.6091 9.16533 20.6091 12.9437C20.6091 16.7222 17.5353 19.7959 13.7569 19.7959ZM21.3705 7.61427C20.1111 7.61427 19.0864 6.58962 19.0864 5.33021C19.0864 4.0708 20.1111 3.04615 21.3705 3.04615C22.6299 3.04615 23.6545 4.0708 23.6545 5.33021C23.6545 6.58962 22.6299 7.61427 21.3705 7.61427Z" fill="white"/>
<path d="M21.3705 4.56885C20.9504 4.56885 20.6091 4.91007 20.6091 5.3302C20.6091 5.75033 20.9504 6.09156 21.3705 6.09156C21.7906 6.09156 22.1318 5.75033 22.1318 5.3302C22.1318 4.91007 21.7906 4.56885 21.3705 4.56885Z" fill="white"/>
<path d="M13.757 7.61426C10.8186 7.61426 8.42749 10.0054 8.42749 12.9437C8.42749 15.8821 10.8186 18.2732 13.757 18.2732C16.6953 18.2732 19.0864 15.8821 19.0864 12.9437C19.0864 10.0054 16.6953 7.61426 13.757 7.61426Z" fill="white"/>
</svg>
