<svg width="27" height="26" viewBox="0 0 27 26" fill="none" xmlns="http://www.w3.org/2000/svg">
<path d="M22.5432 0H4.1692C2.07032 0 0.362427 1.70789 0.362427 3.80677V22.1808C0.362427 24.2797 2.07032 25.9875 4.1692 25.9875H22.5432C24.6421 25.9875 26.35 24.2797 26.35 22.1808V3.80677C26.35 1.70789 24.6421 0 22.5432 0ZM9.54943 20.6073H6.50401V9.94836H9.54943V20.6073ZM9.54943 8.42565H6.50401V5.38023H9.54943V8.42565ZM20.2084 20.6073H17.163V14.5165C17.163 13.677 16.4797 12.9938 15.6403 12.9938C14.8008 12.9938 14.1176 13.677 14.1176 14.5165V20.6073H11.0721V9.94836H14.1176V10.5223C14.9154 10.2743 15.4337 9.94836 16.4016 9.94836C18.467 9.95054 20.2084 11.8034 20.2084 13.993V20.6073Z" fill="white"/>
</svg>
