<svg width="26" height="26" viewBox="0 0 26 26" fill="none" xmlns="http://www.w3.org/2000/svg">
<path d="M23.4 0H2.6C1.17 0 0 1.17 0 2.6V23.4C0 24.83 1.17 26 2.6 26H23.4C24.83 26 26 24.83 26 23.4V2.6C26 1.17 24.83 0 23.4 0ZM14.3 18.46C13.26 18.46 12.22 18.0701 11.57 17.2901L10.27 21.4501L10.14 21.7101C9.88 22.1001 9.49 22.3601 8.97 22.3601C8.19 22.3601 7.54 21.7101 7.54 20.9301C7.54 20.8001 7.54 20.8001 7.54 20.8001L7.67 20.5401L10.01 13.26C10.01 13.26 9.75 12.48 9.75 11.31C9.75 9.1 10.92 8.45 11.96 8.45C12.87 8.45 13.78 8.84 13.78 10.14C13.78 11.83 12.61 12.74 12.61 14.04C12.61 14.95 13.39 15.7299 14.3 15.7299C17.29 15.7299 18.46 13.39 18.46 11.3099C18.46 8.44995 15.9901 6.10995 13 6.10995C10.01 6.10995 7.54 8.44995 7.54 11.3099C7.54 12.2199 7.8 12.9999 8.19 13.78C8.32 14.04 8.32 14.1699 8.32 14.4299C8.32 15.2099 7.8 15.7299 7.02 15.7299C6.5 15.7299 6.11 15.4699 5.85 15.0799C5.2 13.9099 4.81 12.6099 4.81 11.1799C4.81 6.88995 8.45 3.37995 12.87 3.37995C17.29 3.37995 20.93 6.88995 20.93 11.1799C21.06 14.82 18.98 18.46 14.3 18.46Z" fill="white"/>
</svg>
