<svg width="1759" height="419" viewBox="0 0 1759 419" fill="none" xmlns="http://www.w3.org/2000/svg">
<path d="M222.855 93.4645C222.67 93.1537 222.268 93.052 221.957 93.2373L216.103 96.7284C215.792 96.9139 215.69 97.3161 215.876 97.627C215.968 97.7823 216.115 97.8856 216.278 97.9267C216.44 97.9678 216.619 97.9469 216.774 97.8542L222.628 94.3631C222.939 94.1777 223.041 93.7754 222.855 93.4645Z" fill="black" fill-opacity="0.15"/>
<path d="M225.294 97.5539C225.109 97.2431 224.706 97.1414 224.395 97.3267L218.542 100.818C218.231 101.003 218.129 101.406 218.314 101.716C218.407 101.872 218.554 101.975 218.717 102.016C218.879 102.057 219.058 102.036 219.213 101.943L225.067 98.4524C225.378 98.267 225.479 97.8647 225.294 97.5539Z" fill="black" fill-opacity="0.15"/>
<path d="M230.172 105.732C229.986 105.422 229.584 105.32 229.273 105.505L223.419 108.996C223.108 109.182 223.007 109.584 223.192 109.895C223.285 110.05 223.432 110.153 223.594 110.194C223.757 110.236 223.935 110.215 224.091 110.122L229.944 106.631C230.255 106.445 230.357 106.043 230.172 105.732Z" fill="black" fill-opacity="0.15"/>
<path d="M227.733 101.643C227.547 101.332 227.145 101.231 226.834 101.416L220.98 104.907C220.67 105.092 220.568 105.495 220.753 105.806C220.846 105.961 220.993 106.064 221.155 106.105C221.318 106.146 221.496 106.125 221.652 106.033L227.506 102.542C227.817 102.356 227.918 101.954 227.733 101.643Z" fill="black" fill-opacity="0.15"/>
<path d="M251.778 98.1856C251.758 97.8952 251.58 97.6439 251.312 97.5297L248.453 96.3096L248.743 93.1589C248.774 92.8245 248.588 92.5111 248.279 92.379L245.368 91.1369L245.659 87.975C245.691 87.6406 245.504 87.3273 245.195 87.1951L242.274 85.9485L242.542 83.0327C242.573 82.6982 242.386 82.3851 242.078 82.254L239.385 81.1048L239.67 78.0097C239.697 77.7195 239.561 77.4429 239.315 77.2876C239.065 77.1301 238.751 77.127 238.496 77.2794L233.131 80.479C232.82 80.6645 232.718 81.0667 232.903 81.3776C233.089 81.6884 233.491 81.7902 233.802 81.6048L238.268 78.9415L238.044 81.376C238.012 81.7103 238.199 82.0238 238.508 82.1559L241.201 83.3051L240.932 86.2208C240.902 86.5548 241.088 86.8677 241.397 86.9996L244.318 88.2462L244.027 91.408C243.995 91.7423 244.182 92.0558 244.491 92.1879L247.402 93.43L247.111 96.5819C247.081 96.9164 247.268 97.2295 247.576 97.3607L249.825 98.3206L223.314 114.131L221.756 111.519C221.571 111.208 221.168 111.106 220.858 111.291C220.547 111.477 220.445 111.879 220.63 112.19L222.188 114.803L216.731 118.057L216.955 115.622C216.986 115.288 216.799 114.975 216.491 114.843L213.58 113.601L213.87 110.45C213.882 110.324 213.863 110.202 213.818 110.091C213.744 109.906 213.598 109.752 213.406 109.67L210.485 108.424L210.776 105.261C210.807 104.927 210.62 104.614 210.311 104.482L207.619 103.333L207.887 100.418C207.918 100.083 207.731 99.7697 207.423 99.6384L205.173 98.6784L210.631 95.4235L218.189 108.097C218.374 108.408 218.777 108.509 219.088 108.324C219.398 108.138 219.5 107.736 219.315 107.425L211.757 94.752L229.808 83.9866C230.119 83.8011 230.221 83.3989 230.035 83.088C229.85 82.7773 229.447 82.6755 229.137 82.8608L203.603 98.0888C203.347 98.2412 203.201 98.5187 203.221 98.8132C203.226 98.8857 203.241 98.956 203.264 99.0221C203.336 99.2206 203.486 99.3834 203.687 99.469L206.546 100.689L206.277 103.605C206.274 103.647 206.273 103.688 206.276 103.729C206.295 104.014 206.472 104.268 206.742 104.384L209.435 105.533L209.143 108.695C209.14 108.737 209.139 108.778 209.142 108.819C209.16 109.088 209.319 109.327 209.563 109.451C209.578 109.458 209.592 109.468 209.608 109.474L212.529 110.721L212.239 113.872C212.208 114.206 212.394 114.52 212.703 114.652L215.614 115.894L215.329 118.989C215.302 119.28 215.438 119.556 215.685 119.711C215.755 119.756 215.831 119.788 215.909 119.808C216.107 119.858 216.32 119.828 216.503 119.719L251.396 98.9099C251.651 98.7576 251.798 98.4799 251.778 98.1856Z" fill="black" fill-opacity="0.15"/>
<path d="M234.607 102.994L233.457 87.2633C233.441 87.1609 233.408 87.0684 233.349 86.9691C233.122 86.5886 232.61 86.5576 232.279 86.7549C232.08 86.8733 231.931 87.0743 231.96 87.3487L233.14 103.128C233.14 103.241 233.173 103.333 233.222 103.416C233.4 103.714 233.852 103.87 234.232 103.643C234.464 103.505 234.626 103.251 234.607 102.994Z" fill="black" fill-opacity="0.15"/>
<path d="M241.57 95.7912L240.11 93.3429C239.222 91.8541 237.921 91.8902 236.663 92.64C235.389 93.3997 234.756 94.5179 235.643 96.0067L237.104 98.4551C237.991 99.9438 239.277 99.9175 240.55 99.1579C241.808 98.408 242.458 97.2799 241.57 95.7912ZM239.919 98.099C239.274 98.4838 238.716 98.4131 238.311 97.7347L236.851 95.2864C236.446 94.6082 236.649 94.0835 237.295 93.6988C237.94 93.3139 238.514 93.375 238.919 94.0532L240.379 96.5015C240.784 97.1797 240.564 97.7144 239.919 98.099Z" fill="black" fill-opacity="0.15"/>
<path d="M230.904 94.5274L229.444 92.079C228.556 90.5901 227.254 90.6263 225.997 91.3761C224.723 92.1358 224.089 93.2539 224.977 94.7428L226.437 97.1912C227.325 98.68 228.61 98.6538 229.884 97.8941C231.141 97.1443 231.792 96.0163 230.904 94.5274ZM229.253 96.8352C228.607 97.2201 228.049 97.1492 227.645 96.4708L226.185 94.0225C225.78 93.3444 225.983 92.8196 226.628 92.4348C227.273 92.05 227.848 92.111 228.252 92.7892L229.713 95.2375C230.117 95.9158 229.898 96.4505 229.253 96.8352Z" fill="black" fill-opacity="0.15"/>
<path d="M73.4173 368.266C73.5339 367.818 73.2659 367.361 72.819 367.245L64.3995 365.048C63.9523 364.932 63.4953 365.199 63.3787 365.647C63.3205 365.87 63.3582 366.096 63.4665 366.281C63.5747 366.466 63.7535 366.609 63.977 366.667L72.3965 368.864C72.8436 368.981 73.3006 368.713 73.4173 368.266Z" fill="black" fill-opacity="0.1"/>
<path d="M71.883 374.147C71.9995 373.7 71.7316 373.243 71.2846 373.126L62.8651 370.93C62.4179 370.813 61.961 371.081 61.8443 371.528C61.7861 371.752 61.8239 371.978 61.9322 372.162C62.0405 372.347 62.2192 372.491 62.4428 372.549L70.8622 374.745C71.3093 374.862 71.7663 374.594 71.883 374.147Z" fill="black" fill-opacity="0.1"/>
<path d="M68.8141 385.91C68.9306 385.463 68.6628 385.006 68.2158 384.889L59.7964 382.693C59.3492 382.576 58.8922 382.844 58.7756 383.291C58.7172 383.515 58.755 383.741 58.8633 383.925C58.9716 384.11 59.1503 384.254 59.3739 384.312L67.7933 386.508C68.2405 386.625 68.6975 386.357 68.8141 385.91Z" fill="black" fill-opacity="0.1"/>
<path d="M70.3486 380.029C70.465 379.582 70.1974 379.125 69.7502 379.008L61.3307 376.811C60.8835 376.695 60.4266 376.963 60.3099 377.41C60.2516 377.633 60.2894 377.859 60.3977 378.044C60.506 378.229 60.6847 378.372 60.9083 378.43L69.3278 380.627C69.775 380.744 70.2319 380.476 70.3486 380.029Z" fill="black" fill-opacity="0.1"/>
<path d="M95.0344 398.8C95.2809 398.522 95.3494 398.135 95.2133 397.789L93.7617 394.095L96.8874 391.537C97.2195 391.266 97.3375 390.815 97.1806 390.416L95.7027 386.656L98.8394 384.088C99.1716 383.817 99.2894 383.367 99.1326 382.967L97.6495 379.193L100.542 376.826C100.874 376.554 100.991 376.103 100.834 375.705L99.467 372.227L102.538 369.714C102.826 369.478 102.955 369.106 102.876 368.743C102.796 368.375 102.517 368.087 102.15 367.991L94.4332 365.978C93.986 365.861 93.5291 366.129 93.4124 366.576C93.2958 367.023 93.5636 367.48 94.0107 367.597L100.434 369.273L98.0188 371.25C97.6867 371.521 97.5688 371.971 97.7256 372.371L99.0929 375.85L96.2001 378.217C95.8689 378.489 95.7515 378.939 95.9081 379.338L97.3912 383.111L94.2545 385.679C93.9224 385.95 93.8044 386.4 93.9613 386.8L95.4392 390.56L92.3123 393.119C91.9806 393.391 91.8634 393.842 92.0204 394.24L93.1624 397.146L55.032 387.198L56.0123 383.44C56.1288 382.993 55.8611 382.536 55.414 382.419C54.9668 382.302 54.5098 382.57 54.3932 383.017L53.4128 386.775L45.5631 384.727L47.9795 382.75C48.3108 382.478 48.4281 382.028 48.2715 381.629L46.7936 377.869L49.9199 375.31C50.0445 375.208 50.1389 375.081 50.1998 374.941C50.3016 374.708 50.3105 374.438 50.2124 374.189L48.7294 370.416L51.8672 367.847C52.1984 367.576 52.3157 367.126 52.1592 366.727L50.7919 363.248L53.6841 360.881C54.0163 360.609 54.1336 360.159 53.9767 359.76L52.8346 356.855L60.6843 358.903L55.9289 377.13C55.8123 377.577 56.0802 378.034 56.5272 378.151C56.9744 378.267 57.4314 378 57.548 377.553L62.3038 359.325L88.2664 366.098C88.7136 366.215 89.1706 365.947 89.2872 365.5C89.4038 365.053 89.1358 364.596 88.6888 364.479L51.964 354.898C51.5965 354.802 51.2129 354.918 50.963 355.2C50.9014 355.269 50.8508 355.346 50.8119 355.426C50.6951 355.669 50.682 355.952 50.7842 356.211L52.2357 359.904L49.343 362.272C49.3016 362.306 49.2635 362.343 49.2289 362.382C48.9866 362.655 48.9139 363.043 49.051 363.393L50.4183 366.871L47.281 369.439C47.2396 369.473 47.2015 369.51 47.1668 369.549C46.9381 369.806 46.8633 370.165 46.9694 370.497C46.9761 370.518 46.9803 370.539 46.9885 370.56L48.4715 374.333L45.3452 376.892C45.0136 377.163 44.896 377.614 45.0526 378.013L46.5306 381.773L43.4594 384.287C43.1716 384.523 43.0422 384.894 43.1217 385.257C43.1445 385.362 43.1832 385.459 43.2353 385.548C43.367 385.773 43.5845 385.94 43.8476 386.009L94.0337 399.102C94.4008 399.198 94.7844 399.082 95.0344 398.8Z" fill="black" fill-opacity="0.1"/>
<path d="M75.2788 387.491L88.555 372.352C88.6336 372.246 88.6884 372.133 88.7256 371.99C88.8684 371.443 88.4379 370.95 87.9621 370.825C87.6767 370.751 87.3601 370.795 87.1366 371.068L73.842 386.278C73.7396 386.378 73.6848 386.491 73.6537 386.61C73.5419 387.038 73.8047 387.589 74.3519 387.732C74.6851 387.819 75.0616 387.739 75.2788 387.491Z" fill="black" fill-opacity="0.1"/>
<path d="M88.0675 387.371L88.9862 383.85C89.5448 381.709 88.3458 380.557 86.5375 380.085C84.7054 379.607 83.1206 380.033 82.5619 382.174L81.6432 385.695C81.0846 387.837 82.2597 388.982 84.0918 389.46C85.9001 389.932 87.5089 389.513 88.0675 387.371ZM84.4891 387.937C83.5611 387.695 83.1255 387.124 83.38 386.148L84.2987 382.627C84.5532 381.651 85.2123 381.366 86.1402 381.608C87.0682 381.85 87.5275 382.427 87.273 383.403L86.3543 386.924C86.0998 387.9 85.4169 388.179 84.4891 387.937Z" fill="black" fill-opacity="0.1"/>
<path d="M79.6611 376.538L80.5798 373.016C81.1385 370.875 79.9395 369.724 78.1313 369.252C76.2992 368.774 74.7142 369.199 74.1556 371.34L73.2369 374.862C72.6781 377.003 73.8533 378.148 75.6855 378.626C77.4937 379.098 79.1024 378.679 79.6611 376.538ZM76.0829 377.104C75.1548 376.861 74.7195 376.291 74.974 375.315L75.8927 371.793C76.1471 370.818 76.8061 370.532 77.7341 370.774C78.6621 371.017 79.1214 371.594 78.8668 372.569L77.9481 376.091C77.6936 377.066 77.0107 377.346 76.0829 377.104Z" fill="black" fill-opacity="0.1"/>
<path d="M33.4456 40.579C33.2544 40.1584 32.7583 39.9724 32.3377 40.1634L24.4161 43.7636C23.9955 43.9549 23.8094 44.4508 24.0006 44.8715C24.0962 45.0817 24.268 45.2335 24.4685 45.3086C24.6689 45.3838 24.8981 45.3825 25.1084 45.287L33.03 41.6868C33.4507 41.4957 33.6367 40.9997 33.4456 40.579Z" fill="black" fill-opacity="0.1"/>
<path d="M35.9606 46.1126C35.7694 45.6921 35.2733 45.5061 34.8527 45.6971L26.9311 49.2973C26.5104 49.4886 26.3244 49.9845 26.5156 50.4052C26.6112 50.6154 26.783 50.767 26.9836 50.8423C27.1841 50.9175 27.4132 50.9162 27.6235 50.8206L35.5451 47.2205C35.9657 47.0293 36.1518 46.5333 35.9606 46.1126Z" fill="black" fill-opacity="0.1"/>
<path d="M40.9905 57.18C40.7991 56.7594 40.3032 56.5734 39.8826 56.7645L31.9611 60.3647C31.5404 60.5559 31.3544 61.0519 31.5456 61.4725C31.6412 61.6829 31.8129 61.8345 32.0134 61.9097C32.2139 61.9849 32.443 61.9836 32.6534 61.888L40.5749 58.2879C40.9956 58.0966 41.1816 57.6006 40.9905 57.18Z" fill="black" fill-opacity="0.1"/>
<path d="M38.4756 51.6463C38.2843 51.2259 37.7884 51.0397 37.3677 51.2308L29.4461 54.831C29.0254 55.0222 28.8394 55.5182 29.0306 55.9388C29.1262 56.1492 29.298 56.3008 29.4984 56.376C29.6989 56.4512 29.928 56.4499 30.1384 56.3543L38.06 52.7542C38.4807 52.5629 38.6668 52.067 38.4756 51.6463Z" fill="black" fill-opacity="0.1"/>
<path d="M69.4725 50.6656C69.4887 50.2945 69.2976 49.9503 68.974 49.7675L65.5194 47.8144L66.3341 43.8582C66.4211 43.4384 66.2289 43.0143 65.8552 42.8028L62.3381 40.8146L63.1557 36.8443C63.2428 36.4245 63.0503 36.0005 62.6767 35.789L59.1473 33.7936L59.9013 30.1323C59.9877 29.7122 59.7947 29.2885 59.422 29.0784L56.1684 27.239L56.9688 23.3525C57.0439 22.9881 56.9103 22.6178 56.6201 22.386C56.3255 22.1508 55.928 22.1024 55.5822 22.2596L48.3219 25.5591C47.9012 25.7503 47.7152 26.2463 47.9063 26.6669C48.0975 27.0876 48.5935 27.2738 49.0142 27.0826L55.0577 24.336L54.4282 27.393C54.3412 27.8128 54.5335 28.2369 54.9071 28.4484L58.1609 30.2878L57.4068 33.9491C57.3206 34.3685 57.513 34.7919 57.886 35.003L61.4155 36.9984L60.598 40.9686C60.511 41.3884 60.7032 41.8125 61.0769 42.0239L64.594 44.0122L63.7789 47.9699C63.6926 48.39 63.8856 48.8137 64.2582 49.0238L66.976 50.5603L31.1005 66.8648L29.4937 63.3293C29.3026 62.9089 28.8066 62.7226 28.3858 62.9137C27.9651 63.105 27.7791 63.601 27.9703 64.0216L29.5771 67.5571L22.1916 70.9137L22.8215 67.8553C22.9078 67.4359 22.7153 67.0125 22.3422 66.8013L18.8251 64.8131L19.6401 60.856C19.6725 60.6984 19.6658 60.5403 19.6248 60.3931C19.5567 60.1478 19.3939 59.9329 19.1609 59.8016L15.6314 57.8061L16.4493 53.8345C16.5355 53.4151 16.343 52.9917 15.97 52.7806L12.7162 50.9412L13.4701 47.2805C13.5568 46.8602 13.3639 46.4363 12.9911 46.226L10.2732 44.6894L17.6587 41.3329L25.4527 58.4826C25.6439 58.9031 26.14 59.0892 26.5606 58.8981C26.9813 58.7068 27.1673 58.2109 26.9761 57.7902L19.1823 40.6404L43.6095 29.5387C44.0302 29.3474 44.2162 28.8515 44.025 28.4308C43.8338 28.0103 43.3378 27.8242 42.9171 28.0153L8.36416 43.7189C8.01846 43.8761 7.79341 44.2074 7.777 44.5839C7.77301 44.6766 7.78186 44.7678 7.80258 44.8551C7.86466 45.117 8.03287 45.345 8.27562 45.4819L11.7301 47.4349L10.976 51.0963C10.9652 51.1487 10.9588 51.2012 10.9565 51.2533C10.9407 51.6182 11.1289 51.9655 11.4553 52.1502L14.7091 53.9896L13.8914 57.9605C13.8806 58.0129 13.8742 58.0654 13.8717 58.1176C13.8566 58.4617 14.0246 58.7875 14.3162 58.9784C14.3345 58.9904 14.3511 59.0041 14.3705 59.015L17.8999 61.0104L17.085 64.9673C16.9985 65.387 17.1909 65.8107 17.5641 66.022L21.0813 68.0103L20.2806 71.8975C20.2058 72.2619 20.3396 72.632 20.6299 72.8637C20.7133 72.9303 20.805 72.9818 20.9015 73.018C21.1454 73.1094 21.4197 73.1025 21.6673 72.9899L68.8856 51.5305C69.231 51.3734 69.4559 51.0419 69.4725 50.6656Z" fill="black" fill-opacity="0.1"/>
<path d="M47.0063 54.3337L47.7747 34.2129C47.7686 34.0806 47.7401 33.9586 47.6791 33.8243C47.445 33.3093 46.7999 33.1975 46.3522 33.401C46.0837 33.523 45.8658 33.757 45.8638 34.1092L45.1261 54.297C45.1097 54.4394 45.1382 54.5615 45.1891 54.6736C45.3721 55.0765 45.9236 55.339 46.4384 55.105C46.752 54.9625 46.994 54.6633 47.0063 54.3337Z" fill="black" fill-opacity="0.1"/>
<path d="M56.8607 46.1818L55.3549 42.8686C54.4393 40.8539 52.7827 40.7155 51.0813 41.4886C49.3576 42.2721 48.395 43.6009 49.3106 45.6156L50.8164 48.9289C51.732 50.9434 53.3661 51.0921 55.0898 50.3088C56.7912 49.5355 57.7763 48.1963 56.8607 46.1818ZM54.4386 48.8759C53.5655 49.2727 52.8675 49.1039 52.4503 48.186L50.9445 44.8729C50.5274 43.9551 50.8593 43.3181 51.7324 42.9214C52.6054 42.5245 53.3259 42.6833 53.743 43.6011L55.2487 46.9143C55.6658 47.832 55.3117 48.4793 54.4386 48.8759Z" fill="black" fill-opacity="0.1"/>
<path d="M43.5066 43.0674L42.0008 39.7543C41.0851 37.7395 39.4286 37.601 37.7273 38.3742C36.0035 39.1577 35.0407 40.4864 35.9565 42.5013L37.4622 45.8144C38.3778 47.8292 40.0121 47.978 41.7358 47.1945C43.4372 46.4213 44.4223 45.0823 43.5066 43.0674ZM41.0848 45.7616C40.2116 46.1585 39.5138 45.9895 39.0966 45.0716L37.5909 41.7584C37.1737 40.8408 37.5054 40.2037 38.3784 39.8068C39.2515 39.41 39.972 39.5688 40.389 40.4866L41.8947 43.7997C42.3119 44.7177 41.9577 45.3649 41.0848 45.7616Z" fill="black" fill-opacity="0.1"/>
<path d="M220.475 215.909C220.483 215.609 220.246 215.359 219.946 215.351L214.292 215.203C213.992 215.196 213.742 215.433 213.734 215.733C213.73 215.883 213.787 216.02 213.883 216.121C213.979 216.222 214.113 216.287 214.263 216.291L219.917 216.438C220.217 216.446 220.467 216.209 220.475 215.909Z" fill="black" fill-opacity="0.08"/>
<path d="M220.372 219.858C220.38 219.558 220.143 219.308 219.843 219.3L214.189 219.153C213.889 219.145 213.639 219.382 213.631 219.682C213.627 219.832 213.684 219.97 213.78 220.071C213.876 220.172 214.01 220.236 214.161 220.24L219.814 220.388C220.114 220.395 220.364 220.158 220.372 219.858Z" fill="black" fill-opacity="0.08"/>
<path d="M220.166 227.757C220.174 227.457 219.937 227.207 219.636 227.199L213.983 227.052C213.683 227.044 213.433 227.281 213.425 227.581C213.421 227.731 213.478 227.869 213.574 227.97C213.67 228.071 213.804 228.135 213.954 228.139L219.608 228.287C219.908 228.294 220.158 228.057 220.166 227.757Z" fill="black" fill-opacity="0.08"/>
<path d="M220.269 223.808C220.277 223.508 220.04 223.258 219.74 223.25L214.086 223.102C213.786 223.095 213.536 223.332 213.528 223.632C213.524 223.782 213.581 223.919 213.677 224.02C213.773 224.121 213.907 224.186 214.057 224.19L219.711 224.337C220.011 224.345 220.261 224.108 220.269 223.808Z" fill="black" fill-opacity="0.08"/>
<path d="M238.666 232.046C238.781 231.834 238.767 231.578 238.63 231.379L237.166 229.256L238.767 227.175C238.937 226.954 238.945 226.652 238.787 226.422L237.296 224.26L238.903 222.171C239.073 221.951 239.081 221.648 238.923 221.418L237.427 219.249L238.909 217.323C239.078 217.102 239.086 216.799 238.928 216.571L237.549 214.571L239.122 212.527C239.269 212.335 239.296 212.08 239.193 211.862C239.087 211.641 238.869 211.5 238.622 211.493L233.44 211.358C233.14 211.35 232.89 211.587 232.882 211.888C232.875 212.188 233.112 212.438 233.412 212.446L237.725 212.558L236.488 214.166C236.318 214.387 236.31 214.689 236.468 214.919L237.847 216.919L236.365 218.845C236.196 219.066 236.188 219.368 236.346 219.597L237.842 221.767L236.235 223.855C236.065 224.076 236.057 224.378 236.215 224.608L237.706 226.77L236.104 228.852C235.934 229.073 235.927 229.375 236.085 229.604L237.237 231.275L211.632 230.607L211.698 228.083C211.706 227.783 211.469 227.533 211.168 227.525C210.868 227.518 210.618 227.755 210.611 228.055L210.545 230.578L205.274 230.441L206.511 228.832C206.681 228.611 206.689 228.309 206.531 228.08L205.04 225.918L206.641 223.836C206.705 223.754 206.746 223.659 206.764 223.562C206.794 223.399 206.76 223.227 206.661 223.084L205.165 220.914L206.772 218.825C206.942 218.605 206.95 218.302 206.792 218.073L205.413 216.073L206.894 214.147C207.064 213.926 207.072 213.624 206.914 213.395L205.762 211.724L211.033 211.862L210.714 224.102C210.706 224.402 210.943 224.651 211.243 224.659C211.543 224.667 211.793 224.43 211.801 224.13L212.12 211.89L229.554 212.345C229.855 212.353 230.104 212.116 230.112 211.815C230.12 211.515 229.883 211.265 229.583 211.257L204.922 210.614C204.675 210.608 204.449 210.737 204.333 210.953C204.304 211.006 204.283 211.062 204.271 211.119C204.232 211.289 204.266 211.47 204.369 211.619L205.833 213.743L204.351 215.669C204.33 215.696 204.311 215.725 204.295 215.755C204.182 215.964 204.194 216.22 204.332 216.421L205.711 218.421L204.104 220.51C204.083 220.537 204.064 220.566 204.048 220.596C203.941 220.793 203.947 221.031 204.063 221.226C204.07 221.238 204.076 221.251 204.084 221.262L205.58 223.432L203.979 225.513C203.809 225.734 203.801 226.036 203.959 226.266L205.45 228.428L203.877 230.473C203.73 230.664 203.703 230.919 203.806 231.137C203.836 231.199 203.875 231.255 203.921 231.304C204.038 231.427 204.2 231.501 204.377 231.505L238.077 232.385C238.324 232.391 238.549 232.261 238.666 232.046Z" fill="black" fill-opacity="0.08"/>
<path d="M224.491 227.804L230.66 216.261C230.694 216.182 230.712 216.103 230.715 216.007C230.724 215.639 230.379 215.39 230.06 215.382C229.868 215.377 229.674 215.452 229.573 215.657L223.403 227.248C223.353 227.326 223.335 227.406 223.333 227.486C223.325 227.773 223.573 228.083 223.94 228.093C224.164 228.099 224.391 227.993 224.491 227.804Z" fill="black" fill-opacity="0.08"/>
<path d="M232.569 225.84L232.631 223.475C232.668 222.037 231.739 221.485 230.525 221.454C229.295 221.422 228.354 221.925 228.317 223.363L228.255 225.727C228.217 227.165 229.13 227.717 230.361 227.749C231.575 227.78 232.531 227.278 232.569 225.84ZM230.387 226.726C229.764 226.71 229.404 226.413 229.421 225.758L229.483 223.393C229.5 222.738 229.875 222.46 230.498 222.476C231.121 222.492 231.497 222.79 231.48 223.445L231.418 225.81C231.401 226.465 231.01 226.743 230.387 226.726Z" fill="black" fill-opacity="0.08"/>
<path d="M225.648 220.223L225.71 217.859C225.748 216.421 224.819 215.869 223.605 215.837C222.374 215.805 221.434 216.308 221.396 217.746L221.335 220.111C221.297 221.549 222.21 222.1 223.44 222.132C224.654 222.164 225.611 221.661 225.648 220.223ZM223.467 221.11C222.844 221.093 222.484 220.796 222.501 220.141L222.563 217.776C222.58 217.121 222.955 216.843 223.578 216.86C224.201 216.876 224.577 217.173 224.56 217.828L224.498 220.193C224.481 220.848 224.09 221.126 223.467 221.11Z" fill="black" fill-opacity="0.08"/>
<path d="M282.223 294.699C282.364 294.469 282.293 294.169 282.063 294.027L277.742 291.366C277.512 291.224 277.212 291.296 277.07 291.525C277 291.64 276.982 291.772 277.011 291.894C277.04 292.015 277.115 292.126 277.23 292.197L281.552 294.858C281.781 295 282.082 294.928 282.223 294.699Z" fill="black" fill-opacity="0.05"/>
<path d="M280.364 297.718C280.505 297.488 280.434 297.187 280.204 297.046L275.882 294.384C275.653 294.243 275.352 294.315 275.211 294.544C275.14 294.659 275.123 294.791 275.152 294.913C275.181 295.034 275.256 295.145 275.371 295.216L279.692 297.877C279.922 298.019 280.222 297.947 280.364 297.718Z" fill="black" fill-opacity="0.05"/>
<path d="M276.645 303.755C276.786 303.526 276.715 303.225 276.486 303.084L272.164 300.422C271.934 300.281 271.634 300.353 271.492 300.582C271.422 300.697 271.404 300.829 271.433 300.951C271.462 301.072 271.537 301.183 271.652 301.253L275.974 303.915C276.203 304.056 276.504 303.985 276.645 303.755Z" fill="black" fill-opacity="0.05"/>
<path d="M278.504 300.737C278.646 300.507 278.574 300.207 278.345 300.065L274.023 297.403C273.794 297.262 273.493 297.334 273.352 297.563C273.281 297.678 273.264 297.81 273.292 297.932C273.321 298.053 273.397 298.164 273.511 298.235L277.833 300.896C278.063 301.038 278.363 300.966 278.504 300.737Z" fill="black" fill-opacity="0.05"/>
<path d="M289.072 315.419C289.257 315.306 289.361 315.102 289.344 314.885L289.165 312.578L291.345 311.684C291.576 311.589 291.719 311.358 291.699 311.108L291.516 308.759L293.704 307.862C293.936 307.767 294.078 307.536 294.059 307.286L293.876 304.928L295.893 304.101C296.124 304.006 296.267 303.775 296.247 303.526L296.078 301.352L298.22 300.474C298.42 300.392 298.556 300.207 298.574 299.991C298.592 299.772 298.486 299.564 298.297 299.447L294.336 297.008C294.107 296.867 293.806 296.938 293.665 297.168C293.523 297.397 293.595 297.698 293.824 297.839L297.121 299.87L295.437 300.56C295.205 300.655 295.063 300.886 295.082 301.136L295.251 303.309L293.234 304.137C293.003 304.231 292.86 304.462 292.88 304.712L293.063 307.07L290.875 307.967C290.644 308.061 290.501 308.292 290.521 308.542L290.703 310.892L288.523 311.786C288.291 311.881 288.149 312.112 288.169 312.361L288.31 314.177L268.738 302.122L269.926 300.193C270.067 299.964 269.996 299.663 269.766 299.522C269.536 299.381 269.236 299.452 269.095 299.682L267.907 301.61L263.877 299.129L265.563 298.438C265.794 298.343 265.936 298.112 265.917 297.863L265.734 295.513L267.914 294.619C268.001 294.584 268.075 294.529 268.133 294.461C268.23 294.348 268.281 294.2 268.269 294.044L268.085 291.686L270.274 290.789C270.505 290.694 270.647 290.463 270.628 290.214L270.458 288.04L272.476 287.213C272.707 287.118 272.85 286.887 272.83 286.638L272.689 284.822L276.718 287.304L270.956 296.66C270.814 296.889 270.886 297.19 271.115 297.331C271.345 297.472 271.645 297.401 271.787 297.172L277.549 287.815L290.876 296.023C291.105 296.164 291.406 296.093 291.547 295.863C291.688 295.634 291.617 295.333 291.388 295.192L272.537 283.582C272.348 283.466 272.115 283.465 271.927 283.58C271.881 283.608 271.84 283.642 271.804 283.68C271.698 283.796 271.642 283.951 271.655 284.113L271.834 286.421L269.817 287.248C269.788 287.26 269.76 287.274 269.734 287.29C269.553 287.401 269.446 287.605 269.463 287.823L269.632 289.997L267.444 290.894C267.415 290.906 267.388 290.92 267.361 290.936C267.19 291.041 267.087 291.228 267.09 291.431C267.09 291.444 267.088 291.457 267.09 291.469L267.273 293.827L265.093 294.721C264.861 294.816 264.719 295.047 264.738 295.297L264.921 297.646L262.779 298.524C262.578 298.607 262.443 298.792 262.425 299.008C262.42 299.07 262.425 299.131 262.439 299.19C262.474 299.338 262.567 299.468 262.702 299.551L288.462 315.417C288.651 315.533 288.884 315.534 289.072 315.419Z" fill="black" fill-opacity="0.05"/>
<path d="M279.981 305.74L289.97 299.561C290.032 299.515 290.082 299.461 290.127 299.388C290.3 299.107 290.144 298.758 289.899 298.608C289.753 298.518 289.569 298.488 289.398 298.602L279.387 304.818C279.313 304.857 279.263 304.91 279.225 304.971C279.09 305.191 279.142 305.544 279.423 305.717C279.594 305.822 279.818 305.842 279.981 305.74Z" fill="black" fill-opacity="0.05"/>
<path d="M287.135 307.855L288.249 306.048C288.926 304.949 288.453 304.102 287.525 303.53C286.585 302.951 285.628 302.918 284.951 304.017L283.838 305.825C283.161 306.924 283.621 307.763 284.561 308.342C285.49 308.914 286.459 308.954 287.135 307.855ZM285.043 307.56C284.567 307.267 284.421 306.874 284.729 306.373L285.843 304.566C286.151 304.065 286.567 304.018 287.044 304.312C287.52 304.605 287.678 305.005 287.369 305.506L286.256 307.314C285.948 307.814 285.519 307.854 285.043 307.56Z" fill="black" fill-opacity="0.05"/>
<path d="M284.295 300.378L285.408 298.571C286.085 297.471 285.612 296.625 284.684 296.053C283.744 295.474 282.787 295.44 282.11 296.54L280.997 298.347C280.32 299.446 280.78 300.286 281.721 300.865C282.649 301.437 283.618 301.477 284.295 300.378ZM282.202 300.083C281.726 299.79 281.58 299.397 281.889 298.896L283.002 297.089C283.31 296.588 283.727 296.541 284.203 296.835C284.679 297.128 284.837 297.528 284.529 298.029L283.415 299.836C283.107 300.337 282.678 300.377 282.202 300.083Z" fill="black" fill-opacity="0.05"/>
<path d="M103.229 224.356C103.256 223.995 102.984 223.68 102.623 223.654L95.826 223.154C95.465 223.128 95.1509 223.399 95.1243 223.76C95.1111 223.94 95.1722 224.109 95.2818 224.236C95.3914 224.363 95.5494 224.448 95.7299 224.461L102.527 224.961C102.888 224.988 103.202 224.717 103.229 224.356Z" fill="black" fill-opacity="0.07"/>
<path d="M102.88 229.104C102.906 228.743 102.635 228.429 102.274 228.402L95.477 227.903C95.1159 227.876 94.8018 228.147 94.7753 228.508C94.7621 228.689 94.8233 228.857 94.9329 228.984C95.0425 229.111 95.2005 229.197 95.381 229.21L102.178 229.709C102.539 229.736 102.853 229.465 102.88 229.104Z" fill="black" fill-opacity="0.07"/>
<path d="M102.182 238.601C102.208 238.24 101.937 237.926 101.576 237.899L94.779 237.4C94.418 237.373 94.1039 237.644 94.0773 238.005C94.0641 238.186 94.1252 238.354 94.2348 238.481C94.3444 238.608 94.5024 238.693 94.6828 238.707L101.48 239.206C101.841 239.233 102.155 238.962 102.182 238.601Z" fill="black" fill-opacity="0.07"/>
<path d="M102.531 233.852C102.557 233.492 102.287 233.177 101.925 233.151L95.128 232.651C94.767 232.625 94.4529 232.896 94.4264 233.257C94.4131 233.437 94.4742 233.606 94.5838 233.733C94.6934 233.86 94.8514 233.945 95.0319 233.958L101.829 234.458C102.19 234.485 102.505 234.213 102.531 233.852Z" fill="black" fill-opacity="0.07"/>
<path d="M124.208 244.818C124.358 244.568 124.356 244.26 124.202 244.013L122.561 241.373L124.607 238.959C124.824 238.703 124.851 238.34 124.674 238.054L123.002 235.367L125.055 232.944C125.273 232.688 125.3 232.325 125.122 232.039L123.445 229.342L125.339 227.108C125.556 226.852 125.582 226.488 125.405 226.204L123.859 223.717L125.868 221.346C126.057 221.124 126.104 220.819 125.992 220.551C125.877 220.279 125.622 220.096 125.326 220.074L119.096 219.616C118.735 219.59 118.42 219.861 118.394 220.222C118.367 220.583 118.638 220.897 118.999 220.923L124.185 221.305L122.605 223.17C122.387 223.426 122.36 223.789 122.538 224.075L124.084 226.561L122.19 228.795C121.974 229.051 121.947 229.414 122.124 229.7L123.801 232.397L121.748 234.819C121.531 235.075 121.504 235.439 121.681 235.724L123.353 238.412L121.306 240.826C121.089 241.083 121.063 241.447 121.24 241.731L122.531 243.808L91.7466 241.545L91.9696 238.511C91.9961 238.15 91.7251 237.836 91.3641 237.809C91.003 237.783 90.6889 238.054 90.6624 238.415L90.4394 241.449L84.1019 240.983L85.6834 239.117C85.9002 238.861 85.9268 238.498 85.7496 238.213L84.0784 235.525L86.1245 233.111C86.206 233.015 86.2607 232.903 86.2879 232.787C86.3332 232.593 86.3019 232.384 86.1911 232.206L84.5141 229.509L86.5676 227.086C86.7843 226.83 86.811 226.467 86.6338 226.181L85.0878 223.695L86.9806 221.462C87.198 221.205 87.2246 220.841 87.0473 220.557L85.7558 218.48L92.0933 218.946L91.0116 233.662C90.9851 234.023 91.2563 234.337 91.6171 234.364C91.9782 234.39 92.2923 234.119 92.3188 233.758L93.4007 219.042L114.362 220.582C114.723 220.609 115.037 220.338 115.063 219.977C115.09 219.616 114.819 219.302 114.458 219.275L84.8079 217.096C84.5113 217.074 84.2321 217.218 84.0795 217.47C84.0419 217.532 84.0138 217.598 83.9952 217.666C83.9396 217.87 83.9696 218.089 84.085 218.275L85.7265 220.914L83.8332 223.148C83.8062 223.18 83.782 223.214 83.7609 223.249C83.613 223.494 83.6119 223.803 83.767 224.053L85.3131 226.539L83.2599 228.962C83.2328 228.994 83.2087 229.027 83.1874 229.062C83.0478 229.293 83.0409 229.58 83.1697 229.821C83.1778 229.836 83.1841 229.852 83.1933 229.867L84.8703 232.564L82.8243 234.978C82.6072 235.234 82.5804 235.597 82.7576 235.883L84.4288 238.57L82.4188 240.942C82.2305 241.164 82.1835 241.469 82.2961 241.737C82.3285 241.814 82.3722 241.884 82.4249 241.945C82.5582 242.1 82.7494 242.198 82.9619 242.213L123.48 245.192C123.776 245.213 124.055 245.07 124.208 244.818Z" fill="black" fill-opacity="0.07"/>
<path d="M107.386 238.903L115.47 225.36C115.515 225.267 115.542 225.172 115.55 225.057C115.583 224.615 115.181 224.296 114.797 224.267C114.566 224.251 114.329 224.33 114.195 224.571L106.108 238.172C106.043 238.264 106.017 238.358 106.009 238.454C105.984 238.8 106.265 239.188 106.706 239.22C106.975 239.24 107.254 239.125 107.386 238.903Z" fill="black" fill-opacity="0.07"/>
<path d="M117.222 236.999L117.431 234.156C117.558 232.428 116.471 231.71 115.011 231.603C113.532 231.494 112.371 232.046 112.244 233.775L112.035 236.618C111.908 238.347 112.976 239.063 114.455 239.172C115.915 239.279 117.095 238.728 117.222 236.999ZM114.545 237.942C113.796 237.887 113.379 237.509 113.437 236.721L113.646 233.878C113.704 233.091 114.171 232.777 114.921 232.832C115.67 232.887 116.105 233.267 116.047 234.055L115.839 236.898C115.781 237.685 115.294 237.997 114.545 237.942Z" fill="black" fill-opacity="0.07"/>
<path d="M109.211 229.844L109.42 227.001C109.547 225.272 108.46 224.555 107 224.448C105.521 224.339 104.36 224.891 104.233 226.62L104.024 229.463C103.897 231.192 104.965 231.908 106.444 232.016C107.904 232.124 109.084 231.573 109.211 229.844ZM106.534 230.787C105.785 230.732 105.369 230.353 105.427 229.566L105.636 226.723C105.694 225.935 106.161 225.622 106.91 225.677C107.659 225.732 108.095 226.112 108.037 226.899L107.828 229.742C107.77 230.53 107.283 230.842 106.534 230.787Z" fill="black" fill-opacity="0.07"/>
<path d="M1535.72 324.588C1535.9 324.899 1536.3 325 1536.61 324.815L1542.47 321.324C1542.78 321.139 1542.88 320.736 1542.7 320.425C1542.6 320.27 1542.46 320.167 1542.29 320.126C1542.13 320.085 1541.95 320.106 1541.8 320.198L1535.94 323.689C1535.63 323.875 1535.53 324.277 1535.72 324.588Z" fill="black" fill-opacity="0.15"/>
<path d="M1533.28 320.499C1533.46 320.809 1533.87 320.911 1534.18 320.726L1540.03 317.235C1540.34 317.049 1540.44 316.647 1540.26 316.336C1540.16 316.181 1540.02 316.078 1539.85 316.037C1539.69 315.995 1539.51 316.016 1539.36 316.109L1533.5 319.6C1533.19 319.786 1533.09 320.188 1533.28 320.499Z" fill="black" fill-opacity="0.15"/>
<path d="M1528.4 312.32C1528.59 312.631 1528.99 312.733 1529.3 312.547L1535.15 309.056C1535.46 308.871 1535.56 308.469 1535.38 308.158C1535.29 308.002 1535.14 307.899 1534.98 307.858C1534.81 307.817 1534.64 307.838 1534.48 307.931L1528.63 311.422C1528.32 311.607 1528.21 312.009 1528.4 312.32Z" fill="black" fill-opacity="0.15"/>
<path d="M1530.84 316.409C1531.02 316.72 1531.43 316.822 1531.74 316.637L1537.59 313.145C1537.9 312.96 1538 312.558 1537.82 312.247C1537.73 312.091 1537.58 311.988 1537.42 311.947C1537.25 311.906 1537.08 311.927 1536.92 312.02L1531.07 315.511C1530.75 315.696 1530.65 316.099 1530.84 316.409Z" fill="black" fill-opacity="0.15"/>
<path d="M1506.79 319.867C1506.81 320.157 1506.99 320.409 1507.26 320.523L1510.12 321.743L1509.83 324.894C1509.8 325.228 1509.98 325.541 1510.29 325.674L1513.2 326.916L1512.91 330.077C1512.88 330.412 1513.07 330.725 1513.38 330.857L1516.3 332.104L1516.03 335.02C1516 335.354 1516.19 335.667 1516.49 335.799L1519.19 336.948L1518.9 340.043C1518.87 340.333 1519.01 340.61 1519.26 340.765C1519.51 340.922 1519.82 340.925 1520.08 340.773L1525.44 337.573C1525.75 337.388 1525.85 336.986 1525.67 336.675C1525.48 336.364 1525.08 336.262 1524.77 336.448L1520.3 339.111L1520.53 336.677C1520.56 336.342 1520.37 336.029 1520.06 335.897L1517.37 334.747L1517.64 331.832C1517.67 331.498 1517.48 331.185 1517.17 331.053L1514.25 329.806L1514.54 326.645C1514.58 326.31 1514.39 325.997 1514.08 325.865L1511.17 324.622L1511.46 321.471C1511.49 321.136 1511.3 320.823 1511 320.692L1508.75 319.732L1535.26 303.921L1536.82 306.534C1537 306.845 1537.4 306.947 1537.71 306.761C1538.02 306.576 1538.13 306.173 1537.94 305.863L1536.38 303.25L1541.84 299.995L1541.62 302.431C1541.59 302.765 1541.77 303.078 1542.08 303.209L1544.99 304.452L1544.7 307.603C1544.69 307.728 1544.71 307.851 1544.75 307.962C1544.83 308.147 1544.97 308.3 1545.17 308.382L1548.09 309.629L1547.8 312.792C1547.76 313.126 1547.95 313.439 1548.26 313.57L1550.95 314.72L1550.68 317.635C1550.65 317.97 1550.84 318.283 1551.15 318.414L1553.4 319.374L1547.94 322.629L1540.38 309.956C1540.2 309.645 1539.79 309.543 1539.48 309.729C1539.17 309.914 1539.07 310.316 1539.26 310.627L1546.81 323.3L1528.76 334.066C1528.45 334.251 1528.35 334.654 1528.54 334.964C1528.72 335.275 1529.12 335.377 1529.43 335.192L1554.97 319.964C1555.22 319.811 1555.37 319.534 1555.35 319.239C1555.35 319.167 1555.33 319.097 1555.31 319.03C1555.24 318.832 1555.09 318.669 1554.88 318.584L1552.03 317.363L1552.29 314.448C1552.3 314.406 1552.3 314.364 1552.3 314.324C1552.28 314.038 1552.1 313.784 1551.83 313.669L1549.14 312.52L1549.43 309.357C1549.43 309.316 1549.43 309.274 1549.43 309.233C1549.41 308.964 1549.25 308.725 1549.01 308.602C1548.99 308.594 1548.98 308.585 1548.96 308.578L1546.04 307.331L1546.33 304.18C1546.36 303.846 1546.18 303.533 1545.87 303.401L1542.96 302.159L1543.24 299.063C1543.27 298.773 1543.13 298.496 1542.89 298.341C1542.82 298.297 1542.74 298.265 1542.66 298.245C1542.46 298.195 1542.25 298.224 1542.07 298.333L1507.18 319.143C1506.92 319.295 1506.77 319.573 1506.79 319.867Z" fill="black" fill-opacity="0.15"/>
<path d="M1523.96 315.059L1525.11 330.789C1525.13 330.892 1525.16 330.984 1525.22 331.083C1525.45 331.464 1525.96 331.495 1526.29 331.298C1526.49 331.179 1526.64 330.978 1526.61 330.704L1525.43 314.924C1525.43 314.812 1525.4 314.719 1525.35 314.636C1525.17 314.339 1524.72 314.182 1524.34 314.409C1524.11 314.547 1523.94 314.801 1523.96 315.059Z" fill="black" fill-opacity="0.15"/>
<path d="M1517 322.261L1518.46 324.71C1519.35 326.198 1520.65 326.162 1521.91 325.412C1523.18 324.653 1523.82 323.535 1522.93 322.046L1521.47 319.597C1520.58 318.109 1519.29 318.135 1518.02 318.895C1516.76 319.644 1516.11 320.773 1517 322.261ZM1518.65 319.953C1519.3 319.569 1519.86 319.639 1520.26 320.318L1521.72 322.766C1522.12 323.444 1521.92 323.969 1521.28 324.354C1520.63 324.739 1520.06 324.678 1519.65 323.999L1518.19 321.551C1517.79 320.873 1518.01 320.338 1518.65 319.953Z" fill="black" fill-opacity="0.15"/>
<path d="M1527.67 323.525L1529.13 325.973C1530.02 327.462 1531.32 327.426 1532.57 326.676C1533.85 325.917 1534.48 324.799 1533.59 323.31L1532.13 320.861C1531.25 319.372 1529.96 319.399 1528.69 320.158C1527.43 320.908 1526.78 322.036 1527.67 323.525ZM1529.32 321.217C1529.96 320.832 1530.52 320.903 1530.93 321.582L1532.39 324.03C1532.79 324.708 1532.59 325.233 1531.94 325.618C1531.3 326.003 1530.72 325.942 1530.32 325.263L1528.86 322.815C1528.45 322.137 1528.67 321.602 1529.32 321.217Z" fill="black" fill-opacity="0.15"/>
<path d="M1685.15 49.7869C1685.04 50.2339 1685.31 50.691 1685.75 50.8077L1694.17 53.0043C1694.62 53.1208 1695.08 52.853 1695.19 52.4059C1695.25 52.1824 1695.21 51.9563 1695.11 51.7716C1695 51.5869 1694.82 51.4435 1694.59 51.3852L1686.18 49.1886C1685.73 49.0719 1685.27 49.3398 1685.15 49.7869Z" fill="black" fill-opacity="0.1"/>
<path d="M1686.69 43.9054C1686.57 44.3524 1686.84 44.8095 1687.29 44.9262L1695.71 47.1227C1696.15 47.2393 1696.61 46.9714 1696.73 46.5244C1696.79 46.3009 1696.75 46.0749 1696.64 45.89C1696.53 45.7053 1696.35 45.5619 1696.13 45.5036L1687.71 43.307C1687.26 43.1904 1686.81 43.4583 1686.69 43.9054Z" fill="black" fill-opacity="0.1"/>
<path d="M1689.76 32.1424C1689.64 32.5895 1689.91 33.0465 1690.36 33.1632L1698.78 35.3597C1699.22 35.4762 1699.68 35.2084 1699.8 34.7613C1699.85 34.5377 1699.82 34.3117 1699.71 34.127C1699.6 33.9423 1699.42 33.7989 1699.2 33.7406L1690.78 31.544C1690.33 31.4275 1689.87 31.6953 1689.76 32.1424Z" fill="black" fill-opacity="0.1"/>
<path d="M1688.22 38.0238C1688.11 38.4708 1688.37 38.9279 1688.82 39.0446L1697.24 41.2412C1697.69 41.3578 1698.14 41.0899 1698.26 40.6428C1698.32 40.4193 1698.28 40.1933 1698.17 40.0086C1698.07 39.8238 1697.89 39.6804 1697.66 39.6221L1689.24 37.4255C1688.8 37.3089 1688.34 37.5768 1688.22 38.0238Z" fill="black" fill-opacity="0.1"/>
<path d="M1663.54 19.252C1663.29 19.53 1663.22 19.9176 1663.36 20.2636L1664.81 23.957L1661.68 26.5154C1661.35 26.7866 1661.23 27.237 1661.39 27.6367L1662.87 31.3968L1659.73 33.9644C1659.4 34.2355 1659.28 34.686 1659.44 35.0856L1660.92 38.8591L1658.03 41.2268C1657.7 41.4985 1657.58 41.9492 1657.74 42.3471L1659.1 45.8257L1656.03 48.3389C1655.75 48.5746 1655.62 48.9463 1655.7 49.3092C1655.78 49.6774 1656.05 49.9655 1656.42 50.0614L1664.14 52.0747C1664.59 52.1913 1665.04 51.9234 1665.16 51.4763C1665.28 51.0292 1665.01 50.5721 1664.56 50.4555L1658.14 48.7796L1660.55 46.8027C1660.88 46.5316 1661 46.0811 1660.85 45.6815L1659.48 42.2028L1662.37 39.8351C1662.7 39.5638 1662.82 39.1139 1662.66 38.7149L1661.18 34.9414L1664.32 32.3738C1664.65 32.1027 1664.77 31.6523 1664.61 31.2526L1663.13 27.4924L1666.26 24.9331C1666.59 24.6613 1666.71 24.2106 1666.55 23.8127L1665.41 20.907L1703.54 30.8549L1702.56 34.6126C1702.44 35.0595 1702.71 35.5167 1703.16 35.6334C1703.6 35.75 1704.06 35.4822 1704.18 35.0351L1705.16 31.2773L1713.01 33.3252L1710.59 35.3029C1710.26 35.5743 1710.14 36.0244 1710.3 36.4234L1711.78 40.1835L1708.65 42.7425C1708.53 42.8444 1708.43 42.9714 1708.37 43.1115C1708.27 43.3449 1708.26 43.6143 1708.36 43.8631L1709.84 47.6368L1706.7 50.2051C1706.37 50.4764 1706.26 50.9265 1706.41 51.3255L1707.78 54.8041L1704.89 57.1714C1704.56 57.4431 1704.44 57.8939 1704.59 58.2921L1705.74 61.1979L1697.89 59.15L1702.64 40.9224C1702.76 40.4754 1702.49 40.0183 1702.04 39.9016C1701.6 39.785 1701.14 40.0529 1701.02 40.5L1696.27 58.7276L1670.31 51.9543C1669.86 51.8377 1669.4 52.1056 1669.28 52.5526C1669.17 52.9997 1669.44 53.4567 1669.88 53.5734L1706.61 63.1545C1706.97 63.2503 1707.36 63.1348 1707.61 62.8528C1707.67 62.7833 1707.72 62.707 1707.76 62.6262C1707.88 62.3836 1707.89 62.1007 1707.79 61.8413L1706.34 58.148L1709.23 55.7803C1709.27 55.7464 1709.31 55.7097 1709.34 55.6707C1709.58 55.3973 1709.66 55.0091 1709.52 54.66L1708.15 51.1813L1711.29 48.6134C1711.33 48.5795 1711.37 48.5428 1711.4 48.5038C1711.63 48.2461 1711.71 47.8872 1711.6 47.5553C1711.6 47.5344 1711.59 47.5133 1711.58 47.4927L1710.1 43.7192L1713.23 41.1603C1713.56 40.889 1713.68 40.4388 1713.52 40.0395L1712.04 36.2793L1715.11 33.7656C1715.4 33.5298 1715.53 33.1581 1715.45 32.7953C1715.43 32.691 1715.39 32.5932 1715.34 32.5043C1715.2 32.2796 1714.99 32.1121 1714.72 32.0435L1664.54 18.9504C1664.17 18.8547 1663.79 18.9703 1663.54 19.252Z" fill="black" fill-opacity="0.1"/>
<path d="M1683.29 30.5614L1670.02 45.7002C1669.94 45.8067 1669.88 45.9194 1669.85 46.0621C1669.7 46.6096 1670.13 47.1029 1670.61 47.227C1670.89 47.3015 1671.21 47.2571 1671.43 46.9849L1684.73 31.7748C1684.83 31.6746 1684.89 31.5618 1684.92 31.4427C1685.03 31.0145 1684.77 30.4632 1684.22 30.3204C1683.89 30.2335 1683.51 30.3133 1683.29 30.5614Z" fill="black" fill-opacity="0.1"/>
<path d="M1670.5 30.6812L1669.59 34.2025C1669.03 36.3438 1670.23 37.4953 1672.03 37.9672C1673.87 38.4451 1675.45 38.0199 1676.01 35.8786L1676.93 32.357C1677.49 30.2159 1676.31 29.0706 1674.48 28.5926C1672.67 28.1209 1671.06 28.5399 1670.5 30.6812ZM1674.08 30.1155C1675.01 30.3576 1675.45 30.9286 1675.19 31.9042L1674.27 35.4256C1674.02 36.4011 1673.36 36.6865 1672.43 36.4444C1671.5 36.2024 1671.04 35.6251 1671.3 34.6496L1672.22 31.1282C1672.47 30.1527 1673.15 29.8733 1674.08 30.1155Z" fill="black" fill-opacity="0.1"/>
<path d="M1678.91 41.5147L1677.99 45.036C1677.43 47.1775 1678.63 48.3289 1680.44 48.8006C1682.27 49.2786 1683.86 48.8536 1684.42 46.7121L1685.33 43.1907C1685.89 41.0493 1684.72 39.904 1682.89 39.426C1681.08 38.9542 1679.47 39.3732 1678.91 41.5147ZM1682.49 40.9489C1683.42 41.1909 1683.85 41.7619 1683.6 42.7376L1682.68 46.2589C1682.42 47.2344 1681.77 47.52 1680.84 47.278C1679.91 47.0359 1679.45 46.4586 1679.7 45.4832L1680.62 41.9618C1680.88 40.9862 1681.56 40.7068 1682.49 40.9489Z" fill="black" fill-opacity="0.1"/>
<path d="M1725.13 377.473C1725.32 377.894 1725.81 378.08 1726.23 377.889L1734.16 374.289C1734.58 374.098 1734.76 373.602 1734.57 373.181C1734.48 372.971 1734.3 372.819 1734.1 372.744C1733.9 372.669 1733.67 372.67 1733.46 372.765L1725.54 376.366C1725.12 376.557 1724.93 377.053 1725.13 377.473Z" fill="black" fill-opacity="0.1"/>
<path d="M1722.61 371.94C1722.8 372.36 1723.3 372.546 1723.72 372.355L1731.64 368.755C1732.06 368.564 1732.25 368.068 1732.06 367.647C1731.96 367.437 1731.79 367.285 1731.59 367.21C1731.39 367.135 1731.16 367.136 1730.95 367.232L1723.03 370.832C1722.61 371.023 1722.42 371.519 1722.61 371.94Z" fill="black" fill-opacity="0.1"/>
<path d="M1717.58 360.872C1717.77 361.293 1718.27 361.479 1718.69 361.288L1726.61 357.688C1727.03 357.496 1727.22 357.001 1727.03 356.58C1726.93 356.37 1726.76 356.218 1726.56 356.143C1726.36 356.068 1726.13 356.069 1725.92 356.164L1718 359.765C1717.58 359.956 1717.39 360.452 1717.58 360.872Z" fill="black" fill-opacity="0.1"/>
<path d="M1720.1 366.406C1720.29 366.827 1720.78 367.013 1721.2 366.822L1729.13 363.221C1729.55 363.03 1729.73 362.534 1729.54 362.114C1729.45 361.903 1729.27 361.752 1729.07 361.676C1728.87 361.601 1728.64 361.603 1728.43 361.698L1720.51 365.298C1720.09 365.489 1719.9 365.985 1720.1 366.406Z" fill="black" fill-opacity="0.1"/>
<path d="M1689.1 367.387C1689.08 367.758 1689.27 368.102 1689.6 368.285L1693.05 370.238L1692.24 374.194C1692.15 374.614 1692.34 375.038 1692.72 375.25L1696.23 377.238L1695.42 381.208C1695.33 381.628 1695.52 382.052 1695.89 382.263L1699.42 384.259L1698.67 387.92C1698.58 388.34 1698.78 388.764 1699.15 388.974L1702.4 390.813L1701.6 394.7C1701.53 395.064 1701.66 395.435 1701.95 395.666C1702.25 395.902 1702.64 395.95 1702.99 395.793L1710.25 392.493C1710.67 392.302 1710.86 391.806 1710.67 391.386C1710.47 390.965 1709.98 390.779 1709.56 390.97L1703.51 393.716L1704.14 390.659C1704.23 390.24 1704.04 389.816 1703.66 389.604L1700.41 387.765L1701.16 384.103C1701.25 383.684 1701.06 383.261 1700.69 383.05L1697.16 381.054L1697.97 377.084C1698.06 376.664 1697.87 376.24 1697.49 376.029L1693.98 374.04L1694.79 370.083C1694.88 369.662 1694.69 369.239 1694.31 369.029L1691.6 367.492L1727.47 351.188L1729.08 354.723C1729.27 355.144 1729.76 355.33 1730.19 355.139C1730.61 354.947 1730.79 354.452 1730.6 354.031L1728.99 350.495L1736.38 347.139L1735.75 350.197C1735.66 350.617 1735.86 351.04 1736.23 351.251L1739.75 353.239L1738.93 357.196C1738.9 357.354 1738.91 357.512 1738.95 357.659C1739.01 357.905 1739.18 358.12 1739.41 358.251L1742.94 360.246L1742.12 364.218C1742.04 364.637 1742.23 365.061 1742.6 365.272L1745.86 367.111L1745.1 370.772C1745.01 371.192 1745.21 371.616 1745.58 371.827L1748.3 373.363L1740.91 376.72L1733.12 359.57C1732.93 359.149 1732.43 358.963 1732.01 359.154C1731.59 359.346 1731.4 359.842 1731.6 360.262L1739.39 377.412L1714.96 388.514C1714.54 388.705 1714.36 389.201 1714.55 389.622C1714.74 390.042 1715.23 390.228 1715.65 390.037L1750.21 374.334C1750.55 374.176 1750.78 373.845 1750.79 373.469C1750.8 373.376 1750.79 373.285 1750.77 373.197C1750.71 372.935 1750.54 372.708 1750.3 372.571L1746.84 370.618L1747.6 366.956C1747.61 366.904 1747.61 366.851 1747.61 366.799C1747.63 366.434 1747.44 366.087 1747.12 365.902L1743.86 364.063L1744.68 360.092C1744.69 360.04 1744.7 359.987 1744.7 359.935C1744.71 359.591 1744.55 359.265 1744.26 359.074C1744.24 359.062 1744.22 359.048 1744.2 359.037L1740.67 357.042L1741.49 353.085C1741.57 352.666 1741.38 352.242 1741.01 352.03L1737.49 350.042L1738.29 346.155C1738.37 345.791 1738.23 345.42 1737.94 345.189C1737.86 345.122 1737.77 345.071 1737.67 345.035C1737.43 344.943 1737.15 344.95 1736.9 345.063L1689.69 366.522C1689.34 366.679 1689.12 367.011 1689.1 367.387Z" fill="black" fill-opacity="0.1"/>
<path d="M1711.57 363.719L1710.8 383.84C1710.8 383.972 1710.83 384.094 1710.89 384.228C1711.13 384.743 1711.77 384.855 1712.22 384.652C1712.49 384.529 1712.71 384.296 1712.71 383.943L1713.45 363.756C1713.46 363.613 1713.43 363.491 1713.38 363.379C1713.2 362.976 1712.65 362.714 1712.13 362.948C1711.82 363.09 1711.58 363.389 1711.57 363.719Z" fill="black" fill-opacity="0.1"/>
<path d="M1701.71 371.871L1703.22 375.184C1704.13 377.199 1705.79 377.337 1707.49 376.564C1709.21 375.78 1710.18 374.452 1709.26 372.437L1707.76 369.124C1706.84 367.109 1705.21 366.96 1703.48 367.744C1701.78 368.517 1700.8 369.856 1701.71 371.871ZM1704.13 369.177C1705.01 368.78 1705.7 368.949 1706.12 369.867L1707.63 373.18C1708.04 374.097 1707.71 374.734 1706.84 375.131C1705.97 375.528 1705.25 375.369 1704.83 374.451L1703.32 371.138C1702.91 370.22 1703.26 369.573 1704.13 369.177Z" fill="black" fill-opacity="0.1"/>
<path d="M1715.06 374.985L1716.57 378.298C1717.49 380.313 1719.14 380.452 1720.84 379.678C1722.57 378.895 1723.53 377.566 1722.61 375.551L1721.11 372.238C1720.19 370.223 1718.56 370.075 1716.84 370.858C1715.13 371.631 1714.15 372.97 1715.06 374.985ZM1717.49 372.291C1718.36 371.894 1719.06 372.063 1719.47 372.981L1720.98 376.294C1721.4 377.212 1721.07 377.849 1720.19 378.246C1719.32 378.643 1718.6 378.484 1718.18 377.566L1716.68 374.253C1716.26 373.335 1716.61 372.688 1717.49 372.291Z" fill="black" fill-opacity="0.1"/>
<path d="M1538.1 202.144C1538.09 202.444 1538.33 202.694 1538.63 202.702L1544.28 202.849C1544.58 202.857 1544.83 202.62 1544.84 202.32C1544.84 202.17 1544.78 202.032 1544.69 201.931C1544.59 201.83 1544.46 201.766 1544.31 201.762L1538.65 201.614C1538.35 201.607 1538.1 201.844 1538.1 202.144Z" fill="black" fill-opacity="0.08"/>
<path d="M1538.2 198.194C1538.19 198.495 1538.43 198.744 1538.73 198.752L1544.38 198.9C1544.68 198.907 1544.93 198.67 1544.94 198.37C1544.94 198.22 1544.89 198.083 1544.79 197.982C1544.7 197.881 1544.56 197.816 1544.41 197.812L1538.76 197.665C1538.46 197.657 1538.21 197.894 1538.2 198.194Z" fill="black" fill-opacity="0.08"/>
<path d="M1538.41 190.295C1538.4 190.596 1538.63 190.845 1538.93 190.853L1544.59 191.001C1544.89 191.008 1545.14 190.771 1545.15 190.471C1545.15 190.321 1545.09 190.184 1545 190.083C1544.9 189.982 1544.77 189.917 1544.62 189.913L1538.96 189.766C1538.66 189.758 1538.41 189.995 1538.41 190.295Z" fill="black" fill-opacity="0.08"/>
<path d="M1538.3 194.245C1538.29 194.545 1538.53 194.795 1538.83 194.803L1544.49 194.95C1544.79 194.958 1545.04 194.721 1545.04 194.421C1545.05 194.271 1544.99 194.133 1544.89 194.032C1544.8 193.931 1544.66 193.867 1544.51 193.863L1538.86 193.715C1538.56 193.708 1538.31 193.945 1538.3 194.245Z" fill="black" fill-opacity="0.08"/>
<path d="M1519.91 186.007C1519.79 186.219 1519.8 186.474 1519.94 186.673L1521.41 188.797L1519.8 190.878C1519.63 191.098 1519.63 191.401 1519.78 191.631L1521.28 193.793L1519.67 195.881C1519.5 196.102 1519.49 196.404 1519.65 196.634L1521.14 198.804L1519.66 200.729C1519.49 200.95 1519.49 201.253 1519.64 201.482L1521.02 203.482L1519.45 205.526C1519.3 205.718 1519.27 205.972 1519.38 206.19C1519.48 206.411 1519.7 206.553 1519.95 206.559L1525.13 206.694C1525.43 206.702 1525.68 206.465 1525.69 206.165C1525.7 205.865 1525.46 205.615 1525.16 205.607L1520.85 205.494L1522.08 203.886C1522.25 203.666 1522.26 203.363 1522.1 203.133L1520.72 201.133L1522.21 199.208C1522.38 198.987 1522.38 198.685 1522.23 198.455L1520.73 196.286L1522.34 194.197C1522.51 193.977 1522.51 193.674 1522.36 193.444L1520.87 191.282L1522.47 189.201C1522.64 188.98 1522.64 188.677 1522.49 188.448L1521.33 186.778L1546.94 187.446L1546.87 189.969C1546.87 190.269 1547.1 190.519 1547.4 190.527C1547.7 190.535 1547.95 190.298 1547.96 189.998L1548.03 187.474L1553.3 187.612L1552.06 189.22C1551.89 189.441 1551.88 189.743 1552.04 189.973L1553.53 192.135L1551.93 194.216C1551.87 194.299 1551.83 194.393 1551.81 194.491C1551.78 194.654 1551.81 194.826 1551.91 194.969L1553.41 197.138L1551.8 199.227C1551.63 199.448 1551.62 199.75 1551.78 199.98L1553.16 201.98L1551.68 203.905C1551.51 204.126 1551.5 204.429 1551.66 204.658L1552.81 206.328L1547.54 206.191L1547.86 193.951C1547.87 193.651 1547.63 193.401 1547.33 193.393C1547.03 193.385 1546.78 193.622 1546.77 193.923L1546.45 206.163L1529.02 205.708C1528.72 205.7 1528.47 205.937 1528.46 206.237C1528.45 206.537 1528.69 206.787 1528.99 206.795L1553.65 207.438C1553.9 207.445 1554.12 207.315 1554.24 207.1C1554.27 207.047 1554.29 206.991 1554.3 206.934C1554.34 206.763 1554.31 206.582 1554.2 206.433L1552.74 204.309L1554.22 202.384C1554.24 202.356 1554.26 202.327 1554.28 202.297C1554.39 202.089 1554.38 201.832 1554.24 201.631L1552.86 199.631L1554.47 197.543C1554.49 197.515 1554.51 197.486 1554.52 197.456C1554.63 197.26 1554.62 197.021 1554.51 196.827C1554.5 196.815 1554.5 196.802 1554.49 196.79L1552.99 194.62L1554.59 192.539C1554.76 192.319 1554.77 192.016 1554.61 191.787L1553.12 189.625L1554.69 187.58C1554.84 187.388 1554.87 187.134 1554.77 186.916C1554.74 186.853 1554.7 186.797 1554.65 186.749C1554.53 186.626 1554.37 186.552 1554.19 186.547L1520.49 185.668C1520.25 185.661 1520.02 185.791 1519.91 186.007Z" fill="black" fill-opacity="0.08"/>
<path d="M1534.08 190.249L1527.91 201.792C1527.88 201.871 1527.86 201.95 1527.86 202.046C1527.85 202.413 1528.19 202.662 1528.51 202.67C1528.7 202.675 1528.9 202.601 1529 202.395L1535.17 190.805C1535.22 190.726 1535.24 190.647 1535.24 190.567C1535.25 190.279 1535 189.969 1534.63 189.96C1534.41 189.954 1534.18 190.06 1534.08 190.249Z" fill="black" fill-opacity="0.08"/>
<path d="M1526 192.213L1525.94 194.577C1525.9 196.015 1526.83 196.567 1528.05 196.599C1529.28 196.631 1530.22 196.128 1530.25 194.69L1530.32 192.325C1530.35 190.887 1529.44 190.336 1528.21 190.304C1527 190.272 1526.04 190.775 1526 192.213ZM1528.18 191.326C1528.81 191.343 1529.17 191.64 1529.15 192.295L1529.09 194.659C1529.07 195.315 1528.7 195.593 1528.07 195.576C1527.45 195.56 1527.07 195.262 1527.09 194.607L1527.15 192.243C1527.17 191.588 1527.56 191.31 1528.18 191.326Z" fill="black" fill-opacity="0.08"/>
<path d="M1532.92 197.829L1532.86 200.194C1532.82 201.632 1533.75 202.184 1534.97 202.215C1536.2 202.247 1537.14 201.744 1537.18 200.306L1537.24 197.942C1537.27 196.504 1536.36 195.952 1535.13 195.92C1533.92 195.889 1532.96 196.391 1532.92 197.829ZM1535.1 196.943C1535.73 196.959 1536.09 197.256 1536.07 197.911L1536.01 200.276C1535.99 200.931 1535.62 201.209 1534.99 201.193C1534.37 201.177 1533.99 200.879 1534.01 200.224L1534.07 197.859C1534.09 197.204 1534.48 196.927 1535.1 196.943Z" fill="black" fill-opacity="0.08"/>
<path d="M1476.35 123.354C1476.21 123.583 1476.28 123.884 1476.51 124.025L1480.83 126.687C1481.06 126.828 1481.36 126.757 1481.5 126.527C1481.57 126.413 1481.59 126.28 1481.56 126.159C1481.53 126.037 1481.46 125.927 1481.34 125.856L1477.02 123.194C1476.79 123.053 1476.49 123.124 1476.35 123.354Z" fill="black" fill-opacity="0.05"/>
<path d="M1478.21 120.335C1478.07 120.564 1478.14 120.865 1478.37 121.006L1482.69 123.668C1482.92 123.809 1483.22 123.738 1483.36 123.508C1483.43 123.394 1483.45 123.261 1483.42 123.14C1483.39 123.018 1483.32 122.908 1483.2 122.837L1478.88 120.175C1478.65 120.034 1478.35 120.105 1478.21 120.335Z" fill="black" fill-opacity="0.05"/>
<path d="M1481.93 114.297C1481.79 114.527 1481.86 114.827 1482.09 114.968L1486.41 117.63C1486.64 117.771 1486.94 117.7 1487.08 117.47C1487.15 117.356 1487.17 117.223 1487.14 117.102C1487.11 116.98 1487.03 116.87 1486.92 116.799L1482.6 114.137C1482.37 113.996 1482.07 114.068 1481.93 114.297Z" fill="black" fill-opacity="0.05"/>
<path d="M1480.07 117.316C1479.93 117.545 1480 117.846 1480.23 117.987L1484.55 120.649C1484.78 120.79 1485.08 120.719 1485.22 120.489C1485.29 120.375 1485.31 120.242 1485.28 120.121C1485.25 119.999 1485.17 119.889 1485.06 119.818L1480.74 117.156C1480.51 117.015 1480.21 117.086 1480.07 117.316Z" fill="black" fill-opacity="0.05"/>
<path d="M1469.5 102.633C1469.31 102.746 1469.21 102.951 1469.23 103.167L1469.41 105.475L1467.23 106.369C1467 106.463 1466.85 106.694 1466.87 106.944L1467.05 109.294L1464.87 110.191C1464.64 110.285 1464.49 110.517 1464.51 110.766L1464.7 113.124L1462.68 113.951C1462.45 114.046 1462.3 114.278 1462.32 114.526L1462.49 116.7L1460.35 117.578C1460.15 117.66 1460.02 117.846 1460 118.062C1459.98 118.281 1460.09 118.489 1460.27 118.605L1464.24 121.045C1464.46 121.186 1464.77 121.114 1464.91 120.885C1465.05 120.655 1464.98 120.355 1464.75 120.213L1461.45 118.183L1463.13 117.492C1463.37 117.397 1463.51 117.166 1463.49 116.917L1463.32 114.743L1465.34 113.916C1465.57 113.821 1465.71 113.59 1465.69 113.341L1465.51 110.983L1467.7 110.086C1467.93 109.991 1468.07 109.76 1468.05 109.51L1467.87 107.161L1470.05 106.267C1470.28 106.172 1470.42 105.94 1470.4 105.692L1470.26 103.876L1489.83 115.93L1488.65 117.859C1488.5 118.088 1488.58 118.389 1488.81 118.53C1489.03 118.672 1489.34 118.6 1489.48 118.371L1490.66 116.442L1494.69 118.924L1493.01 119.615C1492.78 119.709 1492.64 119.94 1492.65 120.19L1492.84 122.539L1490.66 123.433C1490.57 123.469 1490.5 123.524 1490.44 123.591C1490.34 123.704 1490.29 123.853 1490.3 124.008L1490.49 126.366L1488.3 127.264C1488.07 127.359 1487.92 127.59 1487.94 127.839L1488.11 130.013L1486.1 130.84C1485.86 130.934 1485.72 131.166 1485.74 131.415L1485.88 133.231L1481.85 130.749L1487.62 121.393C1487.76 121.163 1487.69 120.863 1487.46 120.721C1487.23 120.58 1486.93 120.651 1486.78 120.881L1481.02 130.237L1467.7 122.029C1467.47 121.888 1467.17 121.96 1467.02 122.189C1466.88 122.419 1466.95 122.719 1467.18 122.861L1486.03 134.47C1486.22 134.587 1486.46 134.588 1486.64 134.473C1486.69 134.445 1486.73 134.411 1486.77 134.372C1486.87 134.257 1486.93 134.101 1486.92 133.939L1486.74 131.631L1488.75 130.804C1488.78 130.792 1488.81 130.778 1488.84 130.763C1489.02 130.651 1489.13 130.447 1489.11 130.229L1488.94 128.055L1491.13 127.158C1491.16 127.146 1491.18 127.132 1491.21 127.117C1491.38 127.012 1491.48 126.825 1491.48 126.621C1491.48 126.608 1491.48 126.596 1491.48 126.583L1491.3 124.225L1493.48 123.331C1493.71 123.236 1493.85 123.005 1493.83 122.756L1493.65 120.406L1495.79 119.528C1495.99 119.446 1496.13 119.26 1496.15 119.044C1496.15 118.982 1496.15 118.921 1496.13 118.863C1496.1 118.715 1496 118.584 1495.87 118.501L1470.11 102.636C1469.92 102.52 1469.69 102.519 1469.5 102.633Z" fill="black" fill-opacity="0.05"/>
<path d="M1478.59 112.312L1468.6 118.492C1468.54 118.538 1468.49 118.591 1468.44 118.664C1468.27 118.945 1468.43 119.294 1468.67 119.445C1468.82 119.535 1469 119.564 1469.17 119.45L1479.18 113.234C1479.26 113.196 1479.31 113.142 1479.35 113.081C1479.48 112.861 1479.43 112.509 1479.15 112.336C1478.98 112.231 1478.75 112.211 1478.59 112.312Z" fill="black" fill-opacity="0.05"/>
<path d="M1471.44 110.197L1470.32 112.005C1469.65 113.104 1470.12 113.951 1471.05 114.522C1471.99 115.101 1472.94 115.135 1473.62 114.036L1474.73 112.228C1475.41 111.129 1474.95 110.29 1474.01 109.71C1473.08 109.139 1472.11 109.098 1471.44 110.197ZM1473.53 110.492C1474 110.786 1474.15 111.178 1473.84 111.679L1472.73 113.487C1472.42 113.987 1472 114.034 1471.53 113.741C1471.05 113.447 1470.89 113.047 1471.2 112.546L1472.32 110.739C1472.62 110.238 1473.05 110.199 1473.53 110.492Z" fill="black" fill-opacity="0.05"/>
<path d="M1474.28 117.674L1473.16 119.482C1472.49 120.581 1472.96 121.428 1473.89 122C1474.83 122.579 1475.78 122.612 1476.46 121.513L1477.57 119.705C1478.25 118.606 1477.79 117.767 1476.85 117.188C1475.92 116.616 1474.95 116.575 1474.28 117.674ZM1476.37 117.969C1476.85 118.263 1476.99 118.655 1476.68 119.156L1475.57 120.964C1475.26 121.464 1474.84 121.511 1474.37 121.218C1473.89 120.925 1473.73 120.524 1474.04 120.024L1475.16 118.216C1475.46 117.715 1475.89 117.676 1476.37 117.969Z" fill="black" fill-opacity="0.05"/>
<path d="M1655.34 193.697C1655.32 194.058 1655.59 194.372 1655.95 194.399L1662.75 194.898C1663.11 194.925 1663.42 194.654 1663.45 194.293C1663.46 194.112 1663.4 193.943 1663.29 193.816C1663.18 193.69 1663.02 193.604 1662.84 193.591L1656.04 193.091C1655.68 193.065 1655.37 193.336 1655.34 193.697Z" fill="black" fill-opacity="0.07"/>
<path d="M1655.69 188.949C1655.66 189.309 1655.94 189.624 1656.3 189.65L1663.09 190.15C1663.46 190.176 1663.77 189.905 1663.8 189.544C1663.81 189.364 1663.75 189.195 1663.64 189.068C1663.53 188.941 1663.37 188.856 1663.19 188.843L1656.39 188.343C1656.03 188.317 1655.72 188.588 1655.69 188.949Z" fill="black" fill-opacity="0.07"/>
<path d="M1656.39 179.452C1656.36 179.813 1656.63 180.127 1657 180.153L1663.79 180.653C1664.15 180.679 1664.47 180.408 1664.49 180.047C1664.51 179.867 1664.45 179.698 1664.34 179.571C1664.23 179.444 1664.07 179.359 1663.89 179.346L1657.09 178.846C1656.73 178.82 1656.42 179.091 1656.39 179.452Z" fill="black" fill-opacity="0.07"/>
<path d="M1656.04 184.2C1656.01 184.561 1656.28 184.875 1656.65 184.902L1663.44 185.401C1663.8 185.428 1664.12 185.157 1664.15 184.796C1664.16 184.615 1664.1 184.447 1663.99 184.32C1663.88 184.193 1663.72 184.107 1663.54 184.094L1656.74 183.594C1656.38 183.568 1656.07 183.839 1656.04 184.2Z" fill="black" fill-opacity="0.07"/>
<path d="M1634.36 173.235C1634.21 173.484 1634.22 173.792 1634.37 174.04L1636.01 176.679L1633.96 179.093C1633.75 179.349 1633.72 179.713 1633.9 179.998L1635.57 182.686L1633.52 185.108C1633.3 185.364 1633.27 185.728 1633.45 186.014L1635.13 188.711L1633.23 190.944C1633.02 191.201 1632.99 191.565 1633.17 191.849L1634.71 194.335L1632.7 196.706C1632.51 196.929 1632.47 197.233 1632.58 197.502C1632.69 197.774 1632.95 197.956 1633.25 197.978L1639.48 198.436C1639.84 198.463 1640.15 198.192 1640.18 197.831C1640.2 197.47 1639.93 197.156 1639.57 197.129L1634.39 196.748L1635.97 194.883C1636.18 194.627 1636.21 194.263 1636.03 193.977L1634.49 191.491L1636.38 189.257C1636.6 189.001 1636.62 188.638 1636.45 188.353L1634.77 185.656L1636.82 183.234C1637.04 182.978 1637.07 182.614 1636.89 182.328L1635.22 179.641L1637.27 177.226C1637.48 176.97 1637.51 176.606 1637.33 176.322L1636.04 174.245L1666.82 176.508L1666.6 179.541C1666.58 179.902 1666.85 180.216 1667.21 180.243C1667.57 180.27 1667.88 179.998 1667.91 179.637L1668.13 176.604L1674.47 177.069L1672.89 178.935C1672.67 179.191 1672.64 179.555 1672.82 179.84L1674.49 182.527L1672.45 184.942C1672.37 185.038 1672.31 185.149 1672.28 185.266C1672.24 185.46 1672.27 185.669 1672.38 185.846L1674.06 188.544L1672 190.967C1671.79 191.223 1671.76 191.586 1671.94 191.871L1673.48 194.357L1671.59 196.591C1671.37 196.847 1671.35 197.211 1671.52 197.496L1672.82 199.573L1666.48 199.107L1667.56 184.391C1667.59 184.03 1667.32 183.716 1666.95 183.689C1666.59 183.662 1666.28 183.934 1666.25 184.295L1665.17 199.011L1644.21 197.47C1643.85 197.444 1643.53 197.715 1643.51 198.076C1643.48 198.437 1643.75 198.751 1644.11 198.777L1673.76 200.957C1674.06 200.978 1674.34 200.835 1674.49 200.582C1674.53 200.52 1674.56 200.454 1674.58 200.386C1674.63 200.183 1674.6 199.963 1674.49 199.778L1672.84 197.138L1674.74 194.904C1674.77 194.872 1674.79 194.839 1674.81 194.804C1674.96 194.559 1674.96 194.249 1674.8 194L1673.26 191.513L1675.31 189.091C1675.34 189.059 1675.36 189.025 1675.38 188.99C1675.52 188.759 1675.53 188.472 1675.4 188.231C1675.39 188.216 1675.39 188.201 1675.38 188.186L1673.7 185.489L1675.75 183.075C1675.96 182.819 1675.99 182.455 1675.81 182.17L1674.14 179.482L1676.15 177.111C1676.34 176.888 1676.39 176.584 1676.28 176.315C1676.24 176.238 1676.2 176.168 1676.15 176.107C1676.01 175.953 1675.82 175.855 1675.61 175.839L1635.09 172.861C1634.8 172.839 1634.52 172.983 1634.36 173.235Z" fill="black" fill-opacity="0.07"/>
<path d="M1651.18 179.149L1643.1 192.693C1643.06 192.786 1643.03 192.881 1643.02 192.996C1642.99 193.438 1643.39 193.757 1643.77 193.785C1644 193.802 1644.24 193.723 1644.38 193.482L1652.46 179.881C1652.53 179.789 1652.55 179.694 1652.56 179.598C1652.59 179.252 1652.31 178.865 1651.86 178.832C1651.6 178.813 1651.32 178.927 1651.18 179.149Z" fill="black" fill-opacity="0.07"/>
<path d="M1641.35 181.053L1641.14 183.896C1641.01 185.625 1642.1 186.342 1643.56 186.449C1645.04 186.558 1646.2 186.006 1646.33 184.277L1646.54 181.434C1646.66 179.705 1645.6 178.99 1644.12 178.881C1642.66 178.774 1641.48 179.324 1641.35 181.053ZM1644.03 180.11C1644.78 180.166 1645.19 180.544 1645.13 181.331L1644.93 184.174C1644.87 184.962 1644.4 185.275 1643.65 185.22C1642.9 185.165 1642.47 184.785 1642.52 183.998L1642.73 181.155C1642.79 180.367 1643.28 180.055 1644.03 180.11Z" fill="black" fill-opacity="0.07"/>
<path d="M1649.36 188.208L1649.15 191.051C1649.02 192.78 1650.11 193.498 1651.57 193.605C1653.05 193.714 1654.21 193.162 1654.34 191.433L1654.55 188.59C1654.67 186.861 1653.61 186.145 1652.13 186.036C1650.67 185.929 1649.49 186.48 1649.36 188.208ZM1652.04 187.266C1652.79 187.321 1653.2 187.699 1653.14 188.487L1652.94 191.33C1652.88 192.117 1652.41 192.431 1651.66 192.376C1650.91 192.32 1650.48 191.941 1650.53 191.153L1650.74 188.31C1650.8 187.523 1651.29 187.211 1652.04 187.266Z" fill="black" fill-opacity="0.07"/>
</svg>
