<svg width="838" height="340" viewBox="0 0 838 340" fill="none" xmlns="http://www.w3.org/2000/svg">
<path d="M836.587 29.5184L835.388 27.5921C835.114 27.1506 835.114 26.6021 835.388 26.1605L836.587 24.2341C837.366 22.982 837.079 21.3512 835.918 20.441L834.133 19.0407C833.724 18.7199 833.536 18.2044 833.643 17.6955L834.111 15.4753C834.415 14.0322 833.587 12.5981 832.185 12.1396L830.029 11.4343C829.534 11.2726 829.182 10.8525 829.108 10.3377L828.788 8.09155C828.58 6.63152 827.309 5.56885 825.838 5.61568L823.57 5.69043C823.05 5.70796 822.575 5.43321 822.33 4.97463L821.261 2.9734C820.566 1.67263 819.01 1.10623 817.642 1.65604L815.537 2.50191C815.054 2.69561 814.514 2.60049 814.127 2.2533L812.438 0.738573C811.34 -0.246191 809.684 -0.246191 808.586 0.738573L806.897 2.25351C806.51 2.6007 805.97 2.69592 805.487 2.50202L803.382 1.65615C802.014 1.10655 800.458 1.67273 799.763 2.97351L798.694 4.97463C798.449 5.43321 797.974 5.70754 797.454 5.69043L795.186 5.61568C793.711 5.56875 792.444 6.63152 792.236 8.09155L791.915 10.3377C791.842 10.8525 791.49 11.2727 790.995 11.4343L788.839 12.1396C787.437 12.5981 786.609 14.0321 786.913 15.4753L787.38 17.6955C787.488 18.2044 787.3 18.7198 786.891 19.0407L785.106 20.441C783.945 21.3512 783.658 22.982 784.437 24.2341L785.635 26.1605C785.91 26.602 785.91 27.1505 785.635 27.5921L784.437 29.5185C783.658 30.7706 783.945 32.4014 785.106 33.3116L786.891 34.712C787.3 35.0328 787.488 35.5483 787.38 36.0572L786.913 38.2774C786.609 39.7205 787.437 41.1546 788.839 41.6131L790.995 42.3184C791.49 42.4801 791.842 42.9002 791.915 43.415L792.236 45.6611C792.444 47.1213 793.715 48.1836 795.186 48.137L797.454 48.0623C797.974 48.0457 798.449 48.3194 798.694 48.7781L799.763 50.7793C800.458 52.0801 802.014 52.6465 803.382 52.0967L805.487 51.2508C805.97 51.0569 806.51 51.1521 806.897 51.4994L808.586 53.0142C809.135 53.5065 809.823 53.7526 810.512 53.7526C811.2 53.7526 811.889 53.5064 812.438 53.014L814.127 51.4991C814.514 51.1519 815.054 51.0567 815.536 51.2506L817.642 52.0964C819.01 52.6461 820.566 52.08 821.261 50.7791L822.33 48.778C822.575 48.3193 823.049 48.0452 823.57 48.0622L825.838 48.1369C827.312 48.1849 828.58 47.1211 828.788 45.661L829.108 43.4149C829.182 42.9001 829.534 42.4799 830.028 42.3183L832.185 41.613C833.587 41.1545 834.415 39.7205 834.111 38.2773L833.643 36.0571C833.536 35.5482 833.724 35.0328 834.133 34.7119L835.918 33.3115C837.079 32.4013 837.366 30.7705 836.587 29.5184ZM834.974 32.1082L833.189 33.5085C832.318 34.1917 831.919 35.289 832.147 36.3722L832.614 38.5925C832.757 39.2705 832.368 39.9441 831.709 40.1594L829.553 40.8647C828.501 41.2088 827.75 42.1034 827.594 43.1991L827.274 45.4453C827.176 46.1312 826.58 46.6312 825.888 46.6083L823.62 46.5336C822.513 46.4978 821.503 47.081 820.981 48.0573L819.912 50.0585C819.586 50.6695 818.855 50.9357 818.212 50.6774L816.107 49.8315C815.08 49.419 813.93 49.6216 813.106 50.3607L811.417 51.8757C810.901 52.3382 810.123 52.3382 809.607 51.8757L807.918 50.3608C807.377 49.8751 806.695 49.621 805.999 49.621C805.636 49.621 805.269 49.6902 804.917 49.8316L802.812 50.6775C802.169 50.9357 801.438 50.6697 801.112 50.0587L800.043 48.0574C799.521 47.0812 798.508 46.4984 797.403 46.5337L795.136 46.6084C794.442 46.6309 793.847 46.1313 793.75 45.4454L793.43 43.1992C793.273 42.1034 792.523 41.2089 791.471 40.8648L789.314 40.1595C788.656 39.9442 788.267 39.2705 788.41 38.5926L788.877 36.3723C789.105 35.2892 788.706 34.1919 787.835 33.5088L786.05 32.1085C785.505 31.6809 785.37 30.9148 785.736 30.3265L786.934 28.4002C787.519 27.4603 787.519 26.2926 786.934 25.3527L785.736 23.4264C785.37 22.8381 785.505 22.0722 786.05 21.6446L787.835 20.2443C788.706 19.5611 789.105 18.4638 788.877 17.3806L788.41 15.1604C788.267 14.4824 788.656 13.8089 789.314 13.5935L791.471 12.8882C792.523 12.5441 793.273 11.6495 793.43 10.5538L793.75 8.30761C793.847 7.62174 794.443 7.12316 795.136 7.14458L797.403 7.21933C798.509 7.25408 799.521 6.67183 800.043 5.69557L801.112 3.69444C801.438 3.08342 802.169 2.81718 802.812 3.07555L804.917 3.92142C805.944 4.33391 807.094 4.13129 807.918 3.39219L809.607 1.87725C810.123 1.41468 810.901 1.41468 811.416 1.87725L813.105 3.39208C813.929 4.13118 815.079 4.33391 816.107 3.92131L818.212 3.07545C818.854 2.81697 819.586 3.08321 819.912 3.69423L820.981 5.69547C821.503 6.67173 822.514 7.25492 823.62 7.21922L825.888 7.14448C826.58 7.1219 827.176 7.62153 827.274 8.3075L827.594 10.5537C827.75 11.6495 828.501 12.544 829.553 12.8881L831.709 13.5934C832.368 13.8087 832.757 14.4824 832.614 15.1603L832.147 17.3805C831.919 18.4636 832.318 19.5609 833.189 20.244L834.974 21.6443C835.519 22.0719 835.654 22.838 835.288 23.4263L834.09 25.3526C833.505 26.2925 833.505 27.4602 834.09 28.4001L835.288 30.3264C835.654 30.9147 835.519 31.6806 834.974 32.1082Z" fill="black" fill-opacity="0.15"/>
<path d="M830.083 28.7876C829.664 28.7304 829.279 29.024 829.222 29.4425C828.613 33.9261 826.397 38.0507 822.982 41.0564C819.536 44.0892 815.107 45.7593 810.512 45.7593C805.916 45.7593 801.488 44.0891 798.042 41.0563C794.627 38.0507 792.411 33.9261 791.802 29.4424C791.745 29.0239 791.36 28.7306 790.941 28.7875C790.523 28.8443 790.229 29.2297 790.286 29.6482C790.945 34.4964 793.34 38.9557 797.032 42.2044C800.757 45.4829 805.544 47.2886 810.512 47.2886C815.48 47.2886 820.267 45.4829 823.992 42.2044C827.684 38.9557 830.079 34.4964 830.738 29.6482C830.795 29.2298 830.501 28.8444 830.083 28.7876Z" fill="black" fill-opacity="0.15"/>
<path d="M830.735 24.082C830.071 19.2388 827.674 14.785 823.984 11.5411C820.26 8.26699 815.476 6.46387 810.512 6.46387C805.547 6.46387 800.761 8.26773 797.037 11.5432C793.347 14.7886 790.95 19.2441 790.288 24.0887C790.231 24.5072 790.524 24.8928 790.942 24.95C790.977 24.9549 791.012 24.9572 791.047 24.9572C791.423 24.9572 791.751 24.6792 791.804 24.2959C792.416 19.8154 794.633 15.6943 798.047 12.6917C801.492 9.66194 805.919 7.9933 810.512 7.9933C815.104 7.9933 819.53 9.6611 822.974 12.6896C826.388 15.6908 828.606 19.8105 829.219 24.2895C829.277 24.7079 829.662 25.0012 830.081 24.9434C830.499 24.8861 830.792 24.5005 830.735 24.082Z" fill="black" fill-opacity="0.15"/>
<path d="M816.838 25.9218C814.501 25.9218 812.741 26.9231 812.741 29.6542V34.1453C812.741 36.8763 814.501 37.8777 816.838 37.8777C819.144 37.8777 820.934 36.8763 820.934 34.1453V29.6542C820.934 26.9231 819.144 25.9218 816.838 25.9218ZM818.749 34.1453C818.749 35.3895 818.021 35.9356 816.838 35.9356C815.654 35.9356 814.956 35.3895 814.956 34.1453V29.6542C814.956 28.41 815.654 27.8639 816.838 27.8639C818.021 27.8639 818.749 28.41 818.749 29.6542V34.1453Z" fill="black" fill-opacity="0.15"/>
<path d="M803.425 15.6044C801.089 15.6044 799.329 16.6059 799.329 19.3369V23.8279C799.329 26.559 801.089 27.5604 803.425 27.5604C805.731 27.5604 807.522 26.559 807.522 23.8279V19.3369C807.522 16.6059 805.731 15.6044 803.425 15.6044ZM805.337 23.8279C805.337 25.0721 804.609 25.6183 803.425 25.6183C802.242 25.6183 801.544 25.0721 801.544 23.8279V19.3369C801.544 18.0927 802.242 17.5466 803.425 17.5466C804.609 17.5466 805.337 18.0927 805.337 19.3369V23.8279Z" fill="black" fill-opacity="0.15"/>
<path d="M815.654 14.421C815.29 14.421 814.926 14.5727 814.744 14.9672L803.607 37.2708C803.516 37.4225 803.486 37.5743 803.486 37.726C803.486 38.2722 803.971 38.8487 804.669 38.8487C805.094 38.8487 805.519 38.6364 805.701 38.2722L816.838 16.0596C816.898 15.9078 816.929 15.7561 816.929 15.5741C816.929 14.8761 816.261 14.421 815.654 14.421Z" fill="black" fill-opacity="0.15"/>
<path d="M751.645 318.621L750.604 316.949C750.366 316.566 750.366 316.09 750.604 315.707L751.645 314.035C752.321 312.948 752.071 311.533 751.064 310.742L749.515 309.527C749.16 309.249 748.997 308.801 749.09 308.359L749.495 306.432C749.759 305.18 749.041 303.935 747.824 303.537L745.952 302.925C745.523 302.784 745.217 302.42 745.153 301.973L744.876 300.023C744.695 298.756 743.592 297.834 742.315 297.874L740.346 297.939C739.895 297.954 739.483 297.716 739.27 297.318L738.342 295.581C737.739 294.452 736.388 293.96 735.201 294.437L733.373 295.172C732.954 295.34 732.486 295.257 732.15 294.956L730.684 293.641C729.731 292.786 728.293 292.786 727.34 293.641L725.874 294.956C725.538 295.257 725.07 295.34 724.651 295.172L722.823 294.438C721.635 293.96 720.285 294.452 719.682 295.581L718.754 297.318C718.541 297.716 718.129 297.954 717.678 297.939L715.709 297.874C714.429 297.834 713.329 298.756 713.148 300.023L712.871 301.973C712.807 302.42 712.501 302.785 712.072 302.925L710.2 303.537C708.983 303.935 708.265 305.18 708.528 306.432L708.934 308.359C709.027 308.801 708.864 309.248 708.509 309.527L706.96 310.742C705.952 311.533 705.703 312.948 706.379 314.035L707.419 315.707C707.658 316.09 707.658 316.566 707.419 316.949L706.379 318.622C705.703 319.708 705.953 321.124 706.96 321.914L708.509 323.129C708.864 323.408 709.027 323.855 708.934 324.297L708.528 326.224C708.265 327.477 708.983 328.722 710.2 329.12L712.072 329.732C712.501 329.872 712.807 330.237 712.871 330.683L713.148 332.633C713.329 333.901 714.433 334.823 715.709 334.782L717.678 334.717C718.129 334.703 718.541 334.94 718.754 335.339L719.682 337.076C720.285 338.205 721.636 338.696 722.823 338.219L724.651 337.485C725.069 337.317 725.538 337.399 725.874 337.701L727.34 339.015C727.817 339.443 728.414 339.656 729.012 339.656C729.609 339.656 730.207 339.443 730.684 339.015L732.15 337.7C732.486 337.399 732.955 337.316 733.373 337.485L735.201 338.219C736.388 338.696 737.739 338.205 738.342 337.075L739.27 335.338C739.483 334.94 739.894 334.702 740.346 334.717L742.314 334.782C743.594 334.824 744.695 333.9 744.875 332.633L745.153 330.683C745.217 330.237 745.523 329.872 745.952 329.732L747.824 329.119C749.04 328.721 749.759 327.477 749.495 326.224L749.09 324.297C748.997 323.855 749.16 323.408 749.515 323.129L751.064 321.914C752.071 321.124 752.321 319.708 751.645 318.621ZM750.245 320.869L748.695 322.085C747.939 322.678 747.593 323.63 747.791 324.571L748.196 326.498C748.32 327.086 747.983 327.671 747.411 327.858L745.539 328.47C744.626 328.769 743.975 329.545 743.839 330.496L743.561 332.446C743.476 333.041 742.959 333.475 742.358 333.455L740.39 333.39C739.429 333.359 738.552 333.866 738.099 334.713L737.171 336.45C736.888 336.98 736.253 337.211 735.695 336.987L733.868 336.253C732.977 335.895 731.978 336.071 731.263 336.712L729.797 338.027C729.35 338.429 728.674 338.429 728.227 338.027L726.761 336.712C726.291 336.291 725.698 336.07 725.095 336.07C724.78 336.07 724.461 336.13 724.156 336.253L722.328 336.987C721.77 337.211 721.136 336.98 720.853 336.45L719.925 334.713C719.472 333.866 718.593 333.36 717.634 333.39L715.666 333.455C715.064 333.475 714.547 333.041 714.463 332.446L714.185 330.496C714.049 329.545 713.398 328.769 712.485 328.47L710.613 327.858C710.041 327.671 709.704 327.086 709.828 326.498L710.233 324.571C710.431 323.63 710.085 322.678 709.329 322.085L707.779 320.87C707.306 320.498 707.189 319.834 707.506 319.323L708.547 317.651C709.054 316.835 709.054 315.822 708.547 315.006L707.506 313.334C707.189 312.823 707.306 312.158 707.779 311.787L709.328 310.572C710.085 309.979 710.431 309.026 710.233 308.086L709.828 306.159C709.704 305.571 710.041 304.986 710.613 304.799L712.485 304.187C713.398 303.888 714.049 303.112 714.185 302.161L714.463 300.211C714.547 299.616 715.064 299.183 715.666 299.201L717.634 299.266C718.594 299.296 719.472 298.791 719.925 297.944L720.853 296.207C721.136 295.676 721.77 295.445 722.328 295.67L724.156 296.404C725.047 296.762 726.045 296.586 726.761 295.944L728.227 294.629C728.674 294.228 729.349 294.228 729.797 294.629L731.263 295.944C731.978 296.586 732.977 296.762 733.868 296.404L735.695 295.669C736.253 295.445 736.888 295.676 737.171 296.207L738.099 297.944C738.552 298.791 739.43 299.297 740.39 299.266L742.358 299.201C742.959 299.182 743.476 299.615 743.561 300.211L743.839 302.16C743.974 303.112 744.626 303.888 745.539 304.187L747.411 304.799C747.982 304.986 748.32 305.571 748.196 306.159L747.79 308.086C747.593 309.026 747.939 309.979 748.695 310.572L750.245 311.787C750.718 312.158 750.835 312.823 750.517 313.334L749.477 315.006C748.969 315.821 748.969 316.835 749.477 317.651L750.517 319.323C750.835 319.833 750.718 320.498 750.245 320.869Z" fill="black" fill-opacity="0.2"/>
<path d="M745.999 317.987C745.636 317.938 745.301 318.193 745.252 318.556C744.723 322.447 742.8 326.028 739.836 328.636C736.845 331.269 733.001 332.718 729.012 332.718C725.023 332.718 721.179 331.269 718.188 328.636C715.224 326.028 713.3 322.447 712.772 318.556C712.723 318.192 712.388 317.938 712.025 317.987C711.662 318.037 711.407 318.371 711.456 318.734C712.028 322.942 714.107 326.813 717.311 329.633C720.545 332.479 724.7 334.046 729.012 334.046C733.324 334.046 737.479 332.479 740.713 329.633C743.917 326.813 745.996 322.942 746.568 318.734C746.617 318.371 746.362 318.037 745.999 317.987Z" fill="black" fill-opacity="0.2"/>
<path d="M746.565 313.903C745.989 309.699 743.908 305.833 740.706 303.017C737.473 300.176 733.32 298.61 729.012 298.61C724.702 298.61 720.548 300.176 717.316 303.019C714.113 305.836 712.033 309.703 711.458 313.909C711.409 314.272 711.663 314.607 712.026 314.656C712.056 314.66 712.087 314.662 712.117 314.662C712.443 314.662 712.728 314.421 712.773 314.088C713.305 310.199 715.229 306.622 718.192 304.016C721.183 301.386 725.025 299.938 729.012 299.938C732.998 299.938 736.839 301.386 739.829 304.014C742.792 306.619 744.717 310.195 745.25 314.083C745.299 314.446 745.634 314.701 745.997 314.65C746.36 314.601 746.614 314.266 746.565 313.903Z" fill="black" fill-opacity="0.2"/>
<path d="M734.503 315.5C732.475 315.5 730.947 316.369 730.947 318.739V322.638C730.947 325.008 732.475 325.877 734.503 325.877C736.504 325.877 738.058 325.008 738.058 322.638V318.739C738.058 316.369 736.504 315.5 734.503 315.5ZM736.162 322.638C736.162 323.717 735.53 324.191 734.503 324.191C733.475 324.191 732.87 323.717 732.87 322.638V318.739C732.87 317.659 733.475 317.185 734.503 317.185C735.53 317.185 736.162 317.659 736.162 318.739V322.638Z" fill="black" fill-opacity="0.2"/>
<path d="M722.861 306.544C720.833 306.544 719.305 307.414 719.305 309.784V313.682C719.305 316.053 720.833 316.922 722.861 316.922C724.862 316.922 726.416 316.053 726.416 313.682V309.784C726.416 307.414 724.862 306.544 722.861 306.544ZM724.52 313.682C724.52 314.762 723.888 315.236 722.861 315.236C721.833 315.236 721.228 314.762 721.228 313.682V309.784C721.228 308.704 721.833 308.23 722.861 308.23C723.888 308.23 724.52 308.704 724.52 309.784V313.682Z" fill="black" fill-opacity="0.2"/>
<path d="M733.475 305.517C733.159 305.517 732.843 305.649 732.685 305.991L723.019 325.35C722.94 325.482 722.913 325.614 722.913 325.746C722.913 326.22 723.335 326.72 723.941 326.72C724.309 326.72 724.678 326.536 724.836 326.22L734.503 306.94C734.555 306.808 734.582 306.676 734.582 306.518C734.582 305.912 734.002 305.517 733.475 305.517Z" fill="black" fill-opacity="0.2"/>
<path d="M686.709 80.2811L685.845 78.8923C685.647 78.5741 685.647 78.1786 685.845 77.8603L686.709 76.4714C687.271 75.5687 687.063 74.393 686.227 73.7368L684.94 72.7273C684.645 72.496 684.509 72.1243 684.587 71.7575L684.924 70.1568C685.143 69.1164 684.546 68.0825 683.535 67.752L681.981 67.2435C681.624 67.1269 681.37 66.824 681.317 66.4529L681.086 64.8336C680.937 63.7809 680.02 63.0148 678.959 63.0486L677.324 63.1025C676.95 63.1151 676.607 62.917 676.431 62.5864L675.66 61.1437C675.159 60.2059 674.037 59.7975 673.051 60.1939L671.533 60.8037C671.185 60.9434 670.795 60.8748 670.516 60.6245L669.299 59.5325C668.507 58.8225 667.313 58.8225 666.522 59.5325L665.304 60.6247C665.025 60.875 664.636 60.9436 664.288 60.8038L662.77 60.194C661.783 59.7978 660.662 60.2059 660.161 61.1437L659.39 62.5864C659.213 62.917 658.871 63.1148 658.496 63.1025L656.861 63.0486C655.798 63.0148 654.884 63.7809 654.734 64.8336L654.503 66.4529C654.45 66.824 654.196 67.127 653.84 67.2435L652.285 67.752C651.275 68.0825 650.678 69.1163 650.897 70.1568L651.234 71.7575C651.311 72.1243 651.176 72.4959 650.881 72.7273L649.594 73.7368C648.757 74.393 648.55 75.5687 649.111 76.4714L649.976 77.8603C650.174 78.1785 650.174 78.574 649.976 78.8923L649.112 80.2812C648.55 81.1839 648.757 82.3596 649.594 83.0158L650.881 84.0254C651.176 84.2567 651.311 84.6283 651.234 84.9952L650.897 86.5959C650.678 87.6363 651.275 88.6702 652.285 89.0007L653.84 89.5092C654.196 89.6257 654.45 89.9287 654.503 90.2998L654.734 91.9191C654.884 92.9718 655.801 93.7377 656.861 93.7041L658.496 93.6502C658.871 93.6382 659.213 93.8356 659.39 94.1662L660.161 95.609C660.662 96.5468 661.783 96.9551 662.77 96.5588L664.288 95.9489C664.636 95.8091 665.025 95.8778 665.304 96.1282L666.522 97.2203C666.918 97.5752 667.414 97.7526 667.91 97.7526C668.407 97.7526 668.903 97.5751 669.299 97.2201L670.516 96.1279C670.795 95.8776 671.185 95.809 671.533 95.9488L673.05 96.5586C674.037 96.9549 675.159 96.5467 675.66 95.6089L676.431 94.1662C676.607 93.8355 676.949 93.6379 677.324 93.6501L678.959 93.704C680.022 93.7386 680.936 92.9716 681.086 91.919L681.317 90.2997C681.37 89.9286 681.624 89.6256 681.981 89.5091L683.535 89.0006C684.546 88.6701 685.143 87.6363 684.924 86.5958L684.587 84.9951C684.509 84.6283 684.645 84.2567 684.94 84.0253L686.227 83.0157C687.063 82.3595 687.271 81.1838 686.709 80.2811ZM685.546 82.1482L684.259 83.1578C683.631 83.6503 683.343 84.4414 683.508 85.2223L683.845 86.823C683.948 87.3118 683.667 87.7974 683.192 87.9527L681.638 88.4611C680.879 88.7092 680.338 89.3542 680.226 90.1441L679.995 91.7635C679.924 92.258 679.495 92.6185 678.996 92.602L677.361 92.5481C676.562 92.5223 675.834 92.9427 675.458 93.6466L674.687 95.0893C674.452 95.5298 673.925 95.7218 673.462 95.5355L671.944 94.9257C671.203 94.6283 670.374 94.7744 669.78 95.3072L668.562 96.3994C668.191 96.7329 667.63 96.7329 667.258 96.3994L666.04 95.3073C665.65 94.9571 665.158 94.7739 664.657 94.7739C664.395 94.7739 664.131 94.8238 663.877 94.9258L662.359 95.5356C661.895 95.7218 661.368 95.53 661.133 95.0895L660.362 93.6467C659.986 92.9429 659.256 92.5227 658.46 92.5482L656.825 92.6021C656.325 92.6182 655.896 92.258 655.826 91.7636L655.595 90.1442C655.482 89.3542 654.941 88.7093 654.183 88.4612L652.628 87.9527C652.153 87.7975 651.873 87.3118 651.976 86.8231L652.313 85.2224C652.477 84.4415 652.189 83.6504 651.561 83.1579L650.274 82.1484C649.881 81.8401 649.784 81.2878 650.048 80.8637L650.912 79.4749C651.334 78.7974 651.334 77.9555 650.912 77.2779L650.048 75.8891C649.784 75.465 649.881 74.9128 650.274 74.6045L651.561 73.595C652.189 73.1025 652.477 72.3114 652.313 71.5304L651.976 69.9298C651.873 69.441 652.153 68.9554 652.628 68.8002L654.183 68.2917C654.941 68.0436 655.482 67.3986 655.595 66.6087L655.826 64.9893C655.896 64.4948 656.326 64.1354 656.825 64.1508L658.46 64.2047C659.257 64.2298 659.986 63.81 660.362 63.1062L661.133 61.6635C661.369 61.223 661.895 61.031 662.359 61.2173L663.877 61.8271C664.617 62.1245 665.446 61.9784 666.04 61.4456L667.258 60.3534C667.63 60.0199 668.191 60.0199 668.562 60.3534L669.78 61.4455C670.374 61.9783 671.203 62.1245 671.944 61.827L673.461 61.2172C673.925 61.0309 674.452 61.2228 674.687 61.6633L675.458 63.1061C675.834 63.8099 676.563 64.2304 677.361 64.2047L678.995 64.1508C679.494 64.1345 679.924 64.4947 679.995 64.9892L680.226 66.6086C680.338 67.3986 680.879 68.0435 681.638 68.2916L683.192 68.8001C683.667 68.9553 683.947 69.441 683.845 69.9297L683.508 71.5303C683.343 72.3112 683.631 73.1023 684.259 73.5948L685.546 74.6044C685.939 74.9126 686.036 75.4649 685.773 75.889L684.908 77.2778C684.487 77.9554 684.487 78.7973 684.908 79.4748L685.773 80.8637C686.037 81.2877 685.939 81.84 685.546 82.1482Z" fill="black" fill-opacity="0.1"/>
<path d="M682.02 79.7543C681.718 79.7131 681.44 79.9248 681.399 80.2265C680.96 83.4589 679.362 86.4325 676.9 88.5994C674.416 90.7859 671.223 91.9899 667.91 91.9899C664.597 91.9899 661.404 90.7858 658.92 88.5994C656.458 86.4325 654.86 83.4589 654.421 80.2264C654.38 79.9247 654.102 79.7132 653.801 79.7542C653.499 79.7952 653.288 80.073 653.329 80.3747C653.803 83.87 655.53 87.0849 658.192 89.427C660.877 91.7907 664.329 93.0925 667.91 93.0925C671.492 93.0925 674.943 91.7907 677.629 89.427C680.29 87.0849 682.017 83.87 682.492 80.3747C682.533 80.0731 682.321 79.7953 682.02 79.7543Z" fill="black" fill-opacity="0.1"/>
<path d="M682.49 76.3618C682.011 72.8701 680.283 69.6592 677.623 67.3205C674.938 64.96 671.489 63.6601 667.91 63.6601C664.331 63.6601 660.88 64.9606 658.196 67.322C655.535 69.6618 653.807 72.8739 653.33 76.3666C653.289 76.6683 653.5 76.9463 653.802 76.9876C653.827 76.9911 653.852 76.9927 653.877 76.9927C654.148 76.9927 654.385 76.7923 654.423 76.516C654.864 73.2858 656.462 70.3147 658.924 68.15C661.407 65.9657 664.599 64.7627 667.91 64.7627C671.221 64.7627 674.412 65.9651 676.895 68.1485C679.356 70.3122 680.955 73.2822 681.397 76.5113C681.438 76.813 681.717 77.0244 682.018 76.9828C682.32 76.9415 682.531 76.6635 682.49 76.3618Z" fill="black" fill-opacity="0.1"/>
<path d="M672.471 77.6881C670.786 77.6881 669.517 78.41 669.517 80.379V83.6168C669.517 85.5857 670.786 86.3077 672.471 86.3077C674.133 86.3077 675.424 85.5857 675.424 83.6168V80.379C675.424 78.41 674.133 77.6881 672.471 77.6881ZM673.849 83.6168C673.849 84.5138 673.324 84.9075 672.471 84.9075C671.618 84.9075 671.114 84.5138 671.114 83.6168V80.379C671.114 79.482 671.618 79.0883 672.471 79.0883C673.324 79.0883 673.849 79.482 673.849 80.379V83.6168Z" fill="black" fill-opacity="0.1"/>
<path d="M662.801 70.2499C661.117 70.2499 659.848 70.9719 659.848 72.9408V76.1786C659.848 78.1475 661.117 78.8695 662.801 78.8695C664.464 78.8695 665.754 78.1475 665.754 76.1786V72.9408C665.754 70.9719 664.464 70.2499 662.801 70.2499ZM664.179 76.1786C664.179 77.0756 663.654 77.4693 662.801 77.4693C661.948 77.4693 661.445 77.0756 661.445 76.1786V72.9408C661.445 72.0438 661.948 71.65 662.801 71.65C663.654 71.65 664.179 72.0438 664.179 72.9408V76.1786Z" fill="black" fill-opacity="0.1"/>
<path d="M671.618 69.3967C671.355 69.3967 671.093 69.5061 670.961 69.7905L662.932 85.8701C662.867 85.9795 662.845 86.089 662.845 86.1983C662.845 86.5921 663.195 87.0077 663.698 87.0077C664.004 87.0077 664.311 86.8546 664.442 86.5921L672.471 70.5781C672.515 70.4686 672.536 70.3593 672.536 70.228C672.536 69.7248 672.055 69.3967 671.618 69.3967Z" fill="black" fill-opacity="0.1"/>
<path d="M824.284 185.122L823.549 183.939C823.38 183.668 823.38 183.332 823.549 183.061L824.284 181.878C824.763 181.109 824.586 180.108 823.874 179.549L822.778 178.69C822.527 178.493 822.411 178.176 822.477 177.864L822.764 176.501C822.951 175.615 822.443 174.734 821.582 174.453L820.258 174.02C819.955 173.921 819.738 173.663 819.693 173.347L819.497 171.968C819.369 171.071 818.589 170.419 817.685 170.448L816.293 170.493C815.974 170.504 815.682 170.336 815.532 170.054L814.876 168.825C814.449 168.027 813.494 167.679 812.654 168.017L811.361 168.536C811.065 168.655 810.733 168.597 810.496 168.383L809.459 167.453C808.785 166.849 807.768 166.849 807.094 167.453L806.057 168.383C805.819 168.597 805.488 168.655 805.192 168.536L803.899 168.017C803.059 167.679 802.104 168.027 801.677 168.826L801.021 170.054C800.87 170.336 800.579 170.504 800.26 170.493L798.867 170.448C797.962 170.419 797.184 171.071 797.056 171.968L796.86 173.347C796.814 173.663 796.598 173.921 796.295 174.02L794.971 174.453C794.11 174.734 793.602 175.615 793.788 176.501L794.075 177.864C794.141 178.176 794.026 178.493 793.775 178.69L792.679 179.549C791.966 180.108 791.79 181.109 792.268 181.878L793.004 183.061C793.173 183.332 793.173 183.668 793.004 183.939L792.268 185.122C791.79 185.891 791.966 186.892 792.679 187.451L793.775 188.311C794.026 188.507 794.141 188.824 794.075 189.136L793.788 190.499C793.602 191.385 794.11 192.266 794.971 192.547L796.295 192.98C796.598 193.08 796.814 193.337 796.86 193.653L797.056 195.032C797.184 195.929 797.964 196.581 798.867 196.552L800.26 196.507C800.579 196.496 800.87 196.664 801.021 196.946L801.677 198.175C802.104 198.973 803.059 199.321 803.899 198.983L805.192 198.464C805.488 198.345 805.819 198.403 806.057 198.617L807.094 199.547C807.431 199.849 807.854 200 808.276 200C808.699 200 809.122 199.849 809.459 199.547L810.496 198.617C810.733 198.403 811.065 198.345 811.361 198.464L812.653 198.983C813.494 199.321 814.449 198.973 814.876 198.174L815.532 196.946C815.682 196.664 815.973 196.496 816.293 196.507L817.685 196.552C818.59 196.582 819.369 195.929 819.497 195.032L819.693 193.653C819.738 193.337 819.955 193.079 820.258 192.98L821.582 192.547C822.442 192.266 822.951 191.385 822.764 190.499L822.477 189.136C822.411 188.824 822.527 188.507 822.778 188.31L823.874 187.451C824.586 186.892 824.763 185.891 824.284 185.122ZM823.294 186.712L822.198 187.572C821.664 187.991 821.418 188.665 821.558 189.33L821.845 190.693C821.933 191.109 821.694 191.523 821.29 191.655L819.966 192.088C819.32 192.299 818.859 192.848 818.764 193.521L818.567 194.9C818.507 195.321 818.141 195.628 817.716 195.614L816.324 195.568C815.644 195.546 815.024 195.904 814.704 196.504L814.047 197.732C813.847 198.107 813.398 198.271 813.004 198.112L811.711 197.593C811.081 197.34 810.374 197.464 809.869 197.918L808.832 198.848C808.515 199.132 808.038 199.132 807.721 198.848L806.684 197.918C806.352 197.619 805.933 197.464 805.506 197.464C805.283 197.464 805.058 197.506 804.842 197.593L803.549 198.112C803.154 198.271 802.706 198.107 802.505 197.732L801.849 196.504C801.529 195.904 800.907 195.546 800.229 195.568L798.836 195.614C798.411 195.628 798.046 195.321 797.986 194.9L797.789 193.521C797.693 192.848 797.232 192.299 796.586 192.088L795.263 191.655C794.858 191.523 794.62 191.109 794.707 190.693L794.994 189.33C795.134 188.665 794.889 187.991 794.354 187.572L793.258 186.712C792.924 186.45 792.841 185.979 793.065 185.618L793.801 184.436C794.16 183.859 794.16 183.142 793.801 182.565L793.065 181.382C792.841 181.021 792.924 180.551 793.258 180.288L794.354 179.428C794.889 179.009 795.134 178.335 794.994 177.67L794.707 176.307C794.62 175.891 794.858 175.478 795.263 175.345L796.586 174.912C797.232 174.701 797.693 174.152 797.789 173.479L797.986 172.1C798.046 171.679 798.411 171.373 798.836 171.386L800.229 171.432C800.907 171.453 801.529 171.096 801.849 170.497L802.505 169.268C802.706 168.893 803.154 168.73 803.549 168.888L804.842 169.407C805.472 169.661 806.178 169.536 806.684 169.083L807.721 168.152C808.037 167.869 808.515 167.869 808.832 168.152L809.869 169.082C810.374 169.536 811.08 169.661 811.711 169.407L813.003 168.888C813.398 168.729 813.847 168.893 814.047 169.268L814.704 170.497C815.024 171.096 815.645 171.454 816.324 171.432L817.716 171.386C818.141 171.372 818.507 171.679 818.567 172.1L818.763 173.479C818.859 174.152 819.32 174.701 819.966 174.912L821.29 175.345C821.694 175.478 821.933 175.891 821.845 176.307L821.558 177.67C821.418 178.335 821.664 179.009 822.198 179.428L823.294 180.288C823.629 180.55 823.712 181.021 823.487 181.382L822.751 182.565C822.392 183.142 822.392 183.858 822.751 184.435L823.487 185.618C823.712 185.979 823.629 186.45 823.294 186.712Z" fill="black" fill-opacity="0.08"/>
<path d="M820.291 184.673C820.034 184.638 819.798 184.819 819.763 185.076C819.389 187.828 818.028 190.36 815.932 192.206C813.816 194.067 811.098 195.093 808.276 195.093C805.455 195.093 802.736 194.067 800.621 192.206C798.524 190.36 797.164 187.828 796.79 185.075C796.755 184.819 796.518 184.638 796.261 184.673C796.004 184.708 795.824 184.945 795.859 185.202C796.264 188.178 797.734 190.916 800 192.91C802.287 194.923 805.226 196.032 808.276 196.032C811.326 196.032 814.265 194.923 816.552 192.91C818.818 190.916 820.289 188.178 820.693 185.202C820.728 184.945 820.548 184.708 820.291 184.673Z" fill="black" fill-opacity="0.08"/>
<path d="M820.691 181.784C820.284 178.811 818.812 176.077 816.547 174.085C814.261 172.075 811.324 170.968 808.276 170.968C805.228 170.968 802.29 172.076 800.004 174.087C797.738 176.079 796.267 178.814 795.86 181.789C795.825 182.045 796.005 182.282 796.262 182.317C796.284 182.32 796.305 182.322 796.326 182.322C796.557 182.322 796.759 182.151 796.791 181.916C797.166 179.165 798.528 176.635 800.624 174.792C802.739 172.932 805.456 171.907 808.276 171.907C811.095 171.907 813.813 172.931 815.927 174.79C818.023 176.633 819.385 179.162 819.761 181.912C819.796 182.169 820.033 182.349 820.29 182.313C820.547 182.278 820.727 182.041 820.691 181.784Z" fill="black" fill-opacity="0.08"/>
<path d="M812.16 182.914C810.725 182.914 809.645 183.529 809.645 185.205V187.963C809.645 189.639 810.725 190.254 812.16 190.254C813.576 190.254 814.675 189.639 814.675 187.963V185.205C814.675 183.529 813.576 182.914 812.16 182.914ZM813.333 187.963C813.333 188.726 812.886 189.062 812.16 189.062C811.433 189.062 811.005 188.726 811.005 187.963V185.205C811.005 184.442 811.433 184.106 812.16 184.106C812.886 184.106 813.333 184.442 813.333 185.205V187.963Z" fill="black" fill-opacity="0.08"/>
<path d="M803.926 176.58C802.491 176.58 801.411 177.195 801.411 178.871V181.629C801.411 183.305 802.491 183.92 803.926 183.92C805.341 183.92 806.441 183.305 806.441 181.629V178.871C806.441 177.195 805.341 176.58 803.926 176.58ZM805.099 181.629C805.099 182.392 804.652 182.728 803.926 182.728C803.199 182.728 802.771 182.392 802.771 181.629V178.871C802.771 178.108 803.199 177.772 803.926 177.772C804.652 177.772 805.099 178.108 805.099 178.871V181.629Z" fill="black" fill-opacity="0.08"/>
<path d="M811.433 175.853C811.21 175.853 810.986 175.947 810.874 176.189L804.037 189.881C803.981 189.975 803.963 190.068 803.963 190.161C803.963 190.496 804.261 190.85 804.689 190.85C804.95 190.85 805.211 190.72 805.323 190.496L812.16 176.859C812.197 176.766 812.216 176.673 812.216 176.561C812.216 176.133 811.806 175.853 811.433 175.853Z" fill="black" fill-opacity="0.08"/>
<path d="M0.436763 310.138L1.63538 312.064C1.91003 312.506 1.91003 313.054 1.63538 313.496L0.436762 315.422C-0.342333 316.674 -0.0547772 318.305 1.10563 319.215L2.8908 320.616C3.29993 320.937 3.48754 321.452 3.38035 321.961L2.91295 324.181C2.60912 325.624 3.43704 327.058 4.8388 327.517L6.99521 328.222C7.48948 328.384 7.84202 328.804 7.91541 329.319L8.23551 331.565C8.44348 333.025 9.71465 334.088 11.186 334.041L13.4537 333.966C13.9737 333.948 14.4484 334.223 14.6935 334.682L15.7625 336.683C16.4574 337.984 18.0134 338.55 19.3819 338L21.4872 337.154C21.9697 336.961 22.5099 337.056 22.8969 337.403L24.5861 338.918C25.684 339.903 27.3398 339.903 28.4378 338.918L30.1268 337.403C30.5139 337.056 31.0539 336.96 31.5365 337.154L33.6418 338C35.0103 338.55 36.5663 337.984 37.2612 336.683L38.3302 334.682C38.5753 334.223 39.05 333.949 39.57 333.966L41.8377 334.041C43.3127 334.088 44.5802 333.025 44.7882 331.565L45.1083 329.319C45.1817 328.804 45.5342 328.384 46.0285 328.222L48.1849 327.517C49.5867 327.058 50.4146 325.624 50.1108 324.181L49.6434 321.961C49.5363 321.452 49.7239 320.937 50.133 320.616L51.9182 319.215C53.0786 318.305 53.3662 316.674 52.5871 315.422L51.3884 313.496C51.1138 313.054 51.1138 312.506 51.3884 312.064L52.587 310.138C53.3661 308.886 53.0785 307.255 51.9181 306.345L50.1329 304.944C49.7238 304.624 49.5362 304.108 49.6434 303.599L50.1108 301.379C50.4146 299.936 49.5867 298.502 48.1849 298.043L46.0285 297.338C45.5342 297.176 45.1817 296.756 45.1083 296.241L44.7882 293.995C44.5801 292.535 43.3086 291.473 41.8377 291.519L39.57 291.594C39.0496 291.611 38.5753 291.337 38.3302 290.878L37.2612 288.877C36.5663 287.576 35.0102 287.01 33.6418 287.56L31.5365 288.406C31.0541 288.599 30.514 288.504 30.1268 288.157L28.4378 286.642C27.8887 286.15 27.2004 285.904 26.5119 285.904C25.8235 285.904 25.1349 286.15 24.5861 286.642L22.8971 288.157C22.51 288.504 21.9696 288.6 21.4873 288.406L19.382 287.56C18.0134 287.01 16.4575 287.576 15.7627 288.877L14.6936 290.878C14.4486 291.337 13.9743 291.611 13.4538 291.594L11.1861 291.519C9.71213 291.471 8.44359 292.535 8.23561 293.995L7.91551 296.241C7.84213 296.756 7.48959 297.176 6.99532 297.338L4.83891 298.043C3.43715 298.502 2.60923 299.936 2.91305 301.379L3.38045 303.599C3.48754 304.108 3.29993 304.624 2.8908 304.944L1.10563 306.345C-0.0547762 307.255 -0.342332 308.886 0.436763 310.138ZM2.04965 307.548L3.83473 306.148C4.70579 305.465 5.10516 304.367 4.87713 303.284L4.40973 301.064C4.26695 300.386 4.65592 299.712 5.31439 299.497L7.47079 298.792C8.52296 298.448 9.2735 297.553 9.42961 296.457L9.74972 294.211C9.84746 293.525 10.4436 293.025 11.1357 293.048L13.4034 293.123C14.5109 293.159 15.5211 292.575 16.0425 291.599L17.1116 289.598C17.438 288.987 18.1689 288.721 18.8119 288.979L20.9171 289.825C21.9442 290.237 23.0942 290.035 23.9182 289.296L25.6073 287.781C26.1229 287.318 26.9008 287.318 27.4165 287.781L29.1055 289.296C29.6471 289.781 30.3293 290.035 31.025 290.035C31.388 290.035 31.7546 289.966 32.1067 289.825L34.212 288.979C34.8549 288.721 35.5858 288.987 35.9122 289.598L36.9813 291.599C37.5029 292.575 38.5156 293.158 39.6204 293.123L41.8881 293.048C42.5816 293.025 43.1764 293.525 43.2741 294.211L43.5942 296.457C43.7503 297.553 44.501 298.447 45.553 298.792L47.7094 299.497C48.3679 299.712 48.7568 300.386 48.6141 301.064L48.1467 303.284C47.9187 304.367 48.318 305.464 49.189 306.148L50.9742 307.548C51.5193 307.976 51.6543 308.742 51.2883 309.33L50.0897 311.256C49.5049 312.196 49.5049 313.364 50.0897 314.304L51.2883 316.23C51.6543 316.818 51.5192 317.584 50.9742 318.012L49.1891 319.412C48.318 320.095 47.9187 321.193 48.1467 322.276L48.6141 324.496C48.7569 325.174 48.3679 325.848 47.7094 326.063L45.553 326.768C44.5009 327.112 43.7503 328.007 43.5942 329.103L43.2741 331.349C43.1764 332.035 42.5807 332.533 41.8881 332.512L39.6204 332.437C38.5148 332.402 37.5028 332.985 36.9813 333.961L35.9122 335.962C35.5857 336.573 34.8549 336.839 34.212 336.581L32.1067 335.735C31.0796 335.322 29.9297 335.525 29.1056 336.264L27.4166 337.779C26.9009 338.242 26.123 338.242 25.6074 337.779L23.9183 336.264C23.0943 335.525 21.9443 335.322 20.9172 335.735L18.812 336.581C18.1693 336.839 17.4382 336.573 17.1117 335.962L16.0426 333.961C15.5211 332.985 14.5093 332.401 13.4035 332.437L11.1358 332.512C10.444 332.534 9.84756 332.035 9.74982 331.349L9.42972 329.103C9.2736 328.007 8.52295 327.112 7.47089 326.768L5.3145 326.063C4.65603 325.848 4.26716 325.174 4.40983 324.496L4.87723 322.276C5.10526 321.193 4.70589 320.095 3.83493 319.412L2.04976 318.012C1.50467 317.584 1.36966 316.818 1.73564 316.23L2.93426 314.304C3.51903 313.364 3.51903 312.196 2.93426 311.256L1.73564 309.33C1.36945 308.742 1.50457 307.976 2.04965 307.548Z" fill="black" fill-opacity="0.15"/>
<path d="M6.94117 310.869C7.35985 310.926 7.74494 310.632 7.80184 310.214C8.41086 305.73 10.6269 301.606 14.042 298.6C17.4878 295.567 21.9164 293.897 26.5119 293.897C31.1075 293.897 35.5362 295.567 38.9819 298.6C42.397 301.606 44.613 305.73 45.222 310.214C45.2788 310.632 45.6643 310.926 46.0827 310.869C46.5012 310.812 46.7944 310.427 46.7375 310.008C46.079 305.16 43.6835 300.701 39.9923 297.452C36.2671 294.173 31.4796 292.368 26.5118 292.368C21.544 292.368 16.7566 294.173 13.0314 297.452C9.34019 300.701 6.94463 305.16 6.28616 310.008C6.22936 310.426 6.52259 310.812 6.94117 310.869Z" fill="black" fill-opacity="0.15"/>
<path d="M6.28919 315.574C6.95249 320.418 9.34973 324.871 13.0394 328.115C16.7634 331.389 21.548 333.193 26.5119 333.193C31.477 333.193 36.2626 331.389 39.9868 328.113C43.677 324.868 46.0737 320.412 46.7355 315.568C46.7926 315.149 46.4998 314.764 46.0813 314.706C46.0463 314.702 46.0113 314.699 45.9769 314.699C45.6005 314.699 45.2725 314.977 45.2201 315.361C44.6082 319.841 42.3909 323.962 38.9769 326.965C35.5319 329.994 31.105 331.663 26.5119 331.663C21.92 331.663 17.4939 329.995 14.0493 326.967C10.6357 323.966 8.41788 319.846 7.80456 315.367C7.74723 314.948 7.36141 314.655 6.94315 314.713C6.52468 314.77 6.23198 315.156 6.28919 315.574Z" fill="black" fill-opacity="0.15"/>
<path d="M20.1861 313.735C22.5227 313.735 24.2827 312.733 24.2827 310.002L24.2827 305.511C24.2827 302.78 22.5227 301.779 20.1861 301.779C17.8799 301.779 16.0896 302.78 16.0896 305.511L16.0896 310.002C16.0896 312.733 17.8799 313.735 20.1861 313.735ZM18.2744 305.511C18.2744 304.267 19.0027 303.721 20.1861 303.721C21.3695 303.721 22.0676 304.267 22.0676 305.511L22.0676 310.002C22.0676 311.246 21.3695 311.792 20.1861 311.792C19.0027 311.792 18.2744 311.246 18.2744 310.002L18.2744 305.511Z" fill="black" fill-opacity="0.15"/>
<path d="M33.5986 324.052C35.9351 324.052 37.6952 323.05 37.6952 320.319L37.6952 315.828C37.6952 313.097 35.9351 312.096 33.5986 312.096C31.2924 312.096 29.502 313.097 29.502 315.828L29.502 320.319C29.502 323.05 31.2924 324.052 33.5986 324.052ZM31.6869 315.828C31.6869 314.584 32.4152 314.038 33.5986 314.038C34.7821 314.038 35.48 314.584 35.48 315.828L35.48 320.319C35.48 321.564 34.7821 322.11 33.5986 322.11C32.4152 322.11 31.6869 321.564 31.6869 320.319L31.6869 315.828Z" fill="black" fill-opacity="0.15"/>
<path d="M21.3695 325.235C21.7337 325.235 22.0978 325.084 22.2799 324.689L33.4166 302.386C33.5076 302.234 33.538 302.082 33.538 301.93C33.538 301.384 33.0524 300.808 32.3545 300.808C31.9296 300.808 31.5048 301.02 31.3227 301.384L20.1861 323.597C20.1254 323.749 20.0951 323.9 20.0951 324.082C20.0951 324.78 20.7626 325.235 21.3695 325.235Z" fill="black" fill-opacity="0.15"/>
<path d="M85.3791 21.0349L86.4195 22.7069C86.6579 23.0901 86.6579 23.5662 86.4195 23.9495L85.3791 25.6215C84.7029 26.7084 84.9525 28.1239 85.9597 28.9139L87.5092 30.1293C87.8643 30.4078 88.0271 30.8553 87.9341 31.2969L87.5284 33.2241C87.2647 34.4767 87.9833 35.7215 89.2 36.1194L91.0717 36.7316C91.5007 36.8719 91.8067 37.2366 91.8704 37.6834L92.1483 39.633C92.3288 40.9003 93.4322 41.8227 94.7093 41.7821L96.6776 41.7172C97.1289 41.702 97.541 41.9404 97.7537 42.3385L98.6816 44.0755C99.2848 45.2046 100.635 45.6962 101.823 45.219L103.651 44.4848C104.069 44.3166 104.538 44.3992 104.874 44.7005L106.34 46.0153C107.293 46.8701 108.731 46.8701 109.684 46.0153L111.15 44.7004C111.486 44.399 111.954 44.3164 112.373 44.4847L114.201 45.2189C115.388 45.6959 116.739 45.2045 117.342 44.0754L118.27 42.3385C118.483 41.9404 118.895 41.7023 119.346 41.7172L121.314 41.7821C122.595 41.8228 123.695 40.9003 123.875 39.633L124.153 37.6834C124.217 37.2366 124.523 36.8718 124.952 36.7316L126.824 36.1194C128.04 35.7215 128.759 34.4768 128.495 33.2241L128.09 31.2969C127.997 30.8553 128.16 30.4079 128.515 30.1294L130.064 28.9139C131.071 28.1239 131.321 26.7084 130.645 25.6215L129.604 23.9495C129.366 23.5663 129.366 23.0902 129.604 22.7069L130.645 21.0348C131.321 19.948 131.071 18.5325 130.064 17.7425L128.515 16.5269C128.159 16.2484 127.997 15.801 128.09 15.3593L128.495 13.4322C128.759 12.1796 128.04 10.9348 126.824 10.5369L124.952 9.92468C124.523 9.78435 124.217 9.41966 124.153 8.97287L123.875 7.02324C123.695 5.75586 122.591 4.83376 121.314 4.87422L119.346 4.9391C118.894 4.9535 118.483 4.71593 118.27 4.31781L117.342 2.58077C116.739 1.45172 115.388 0.960097 114.201 1.43732L112.373 2.17152C111.954 2.33983 111.486 2.25718 111.15 1.95574L109.684 0.640883C109.207 0.213591 108.61 -5.77422e-06 108.012 -5.82646e-06C107.414 -5.8787e-06 106.817 0.213686 106.34 0.641065L104.874 1.95601C104.538 2.25736 104.069 2.34001 103.651 2.1717L101.823 1.4375C100.635 0.960366 99.2848 1.45181 98.6817 2.58095L97.7538 4.31789C97.5411 4.71602 97.1295 4.95395 96.6777 4.93919L94.7094 4.87431C93.43 4.83266 92.3289 5.75604 92.1484 7.02333L91.8705 8.97296C91.8068 9.41975 91.5008 9.78453 91.0718 9.92477L89.2001 10.537C87.9834 10.9349 87.2648 12.1796 87.5285 13.4323L87.9342 15.3594C88.0271 15.8011 87.8643 16.2484 87.5092 16.527L85.9597 17.7425C84.9525 18.5326 84.7029 19.9481 85.3791 21.0349ZM86.7791 18.7869L88.3285 17.5715C89.0846 16.9785 89.4312 16.0261 89.2333 15.0859L88.8276 13.1587C88.7036 12.5702 89.0413 11.9856 89.6128 11.7987L91.4845 11.1865C92.3978 10.8878 93.0493 10.1113 93.1848 9.16023L93.4626 7.21059C93.5474 6.61527 94.0648 6.18123 94.6656 6.2011L96.634 6.26598C97.5952 6.29706 98.4721 5.79085 98.9247 4.94338L99.8526 3.20644C100.136 2.67608 100.77 2.44499 101.328 2.66925L103.156 3.40345C104.047 3.76148 105.045 3.58561 105.761 2.94409L107.227 1.62914C107.674 1.22764 108.349 1.22764 108.797 1.62914L110.263 2.94399C110.733 3.36563 111.325 3.58616 111.929 3.58616C112.244 3.58616 112.562 3.5261 112.868 3.40336L114.695 2.66916C115.253 2.44499 115.888 2.6759 116.171 3.20625L117.099 4.94329C117.552 5.79067 118.431 6.29651 119.39 6.26589L121.358 6.20101C121.96 6.18151 122.476 6.61518 122.561 7.2105L122.839 9.16014C122.975 10.1113 123.626 10.8877 124.539 11.1864L126.411 11.7986C126.983 11.9855 127.32 12.5702 127.196 13.1586L126.791 15.0858C126.593 16.0259 126.939 16.9784 127.695 17.5713L129.245 18.7868C129.718 19.1579 129.835 19.8228 129.517 20.3334L128.477 22.0055C127.969 22.8213 127.969 23.8348 128.477 24.6506L129.517 26.3227C129.835 26.8332 129.718 27.4981 129.245 27.8693L127.695 29.0847C126.939 29.6776 126.593 30.6301 126.791 31.5703L127.196 33.4974C127.32 34.0859 126.983 34.6705 126.411 34.8574L124.539 35.4696C123.626 35.7683 122.975 36.5448 122.839 37.4959L122.561 39.4455C122.476 40.0408 121.959 40.4736 121.358 40.455L119.39 40.3901C118.43 40.3599 117.552 40.8653 117.099 41.7127L116.171 43.4497C115.888 43.98 115.253 44.2111 114.695 43.9868L112.868 43.2526C111.977 42.8946 110.979 43.0705 110.263 43.712L108.797 45.027C108.35 45.4285 107.674 45.4285 107.227 45.027L105.761 43.7121C105.045 43.0706 104.047 42.8946 103.156 43.2527L101.328 43.9869C100.771 44.2113 100.136 43.9802 99.8527 43.4498L98.9248 41.7128C98.4721 40.8654 97.5939 40.3592 96.634 40.3902L94.6657 40.4551C94.0652 40.4747 93.5475 40.041 93.4627 39.4456L93.1848 37.496C93.0493 36.5448 92.3978 35.7684 91.4846 35.4697L89.6129 34.8575C89.0414 34.6706 88.7038 34.0858 88.8277 33.4974L89.2334 31.5704C89.4313 30.6303 89.0846 29.6778 88.3287 29.0849L86.7792 27.8694C86.306 27.4983 86.1888 26.8333 86.5065 26.3228L87.5469 24.6507C88.0545 23.8349 88.0545 22.8213 87.5469 22.0056L86.5065 20.3335C86.1887 19.8229 86.3059 19.1581 86.7791 18.7869Z" fill="black" fill-opacity="0.2"/>
<path d="M91.0248 21.6691C91.3882 21.7188 91.7224 21.4639 91.7718 21.1007C92.3004 17.209 94.2239 13.6289 97.1882 11.02C100.179 8.38765 104.023 6.93802 108.012 6.93802C112.001 6.93802 115.845 8.38774 118.836 11.0201C121.8 13.6289 123.723 17.209 124.252 21.1008C124.301 21.464 124.636 21.7186 124.999 21.6692C125.362 21.6199 125.617 21.2854 125.567 20.9222C124.996 16.714 122.917 12.8434 119.713 10.0236C116.479 7.17786 112.324 5.61059 108.012 5.61059C103.7 5.61059 99.5444 7.17786 96.311 10.0236C93.1071 12.8434 91.0278 16.714 90.4562 20.9222C90.4069 21.2853 90.6615 21.6198 91.0248 21.6691Z" fill="black" fill-opacity="0.2"/>
<path d="M90.459 25.7536C91.0347 29.9574 93.1155 33.8232 96.3181 36.6389C99.5504 39.4808 103.703 41.0458 108.012 41.0458C112.322 41.0458 116.475 39.4801 119.708 36.6371C122.911 33.8201 124.991 29.9528 125.566 25.7477C125.615 25.3845 125.361 25.0498 124.998 25.0001C124.967 24.996 124.937 24.9939 124.907 24.9939C124.581 24.9939 124.296 25.2352 124.25 25.5679C123.719 29.4569 121.795 33.034 118.831 35.6402C115.841 38.27 111.999 39.7183 108.012 39.7183C104.026 39.7183 100.184 38.2707 97.1946 35.642C94.2317 33.037 92.3067 29.4612 91.7743 25.5735C91.7245 25.2103 91.3897 24.9558 91.0266 25.0059C90.6634 25.0556 90.4093 25.3903 90.459 25.7536Z" fill="black" fill-opacity="0.2"/>
<path d="M102.521 24.1567C104.549 24.1567 106.077 23.2876 106.077 20.917L106.077 17.0189C106.077 14.6484 104.549 13.7792 102.521 13.7792C100.519 13.7792 98.9655 14.6484 98.9655 17.0189L98.9655 20.917C98.9655 23.2876 100.519 24.1567 102.521 24.1567ZM100.862 17.0189C100.862 15.9389 101.494 15.4649 102.521 15.4649C103.548 15.4649 104.154 15.9389 104.154 17.0189L104.154 20.917C104.154 21.997 103.548 22.471 102.521 22.471C101.494 22.471 100.862 21.997 100.862 20.917L100.862 17.0189Z" fill="black" fill-opacity="0.2"/>
<path d="M114.163 33.1119C116.191 33.1119 117.719 32.2427 117.719 29.8722L117.719 25.9741C117.719 23.6035 116.191 22.7344 114.163 22.7344C112.161 22.7344 110.607 23.6035 110.607 25.9741L110.607 29.8722C110.607 32.2427 112.161 33.1119 114.163 33.1119ZM112.504 25.9741C112.504 24.8941 113.136 24.4201 114.163 24.4201C115.19 24.4201 115.796 24.8941 115.796 25.9741L115.796 29.8722C115.796 30.9522 115.19 31.4262 114.163 31.4262C113.136 31.4262 112.504 30.9522 112.504 29.8722L112.504 25.9741Z" fill="black" fill-opacity="0.2"/>
<path d="M103.548 34.1392C103.865 34.1392 104.181 34.0075 104.339 33.6651L114.005 14.3059C114.084 14.1742 114.11 14.0425 114.11 13.9108C114.11 13.4368 113.689 12.9363 113.083 12.9363C112.714 12.9363 112.346 13.1206 112.188 13.4368L102.521 32.7169C102.469 32.8486 102.442 32.9803 102.442 33.1383C102.442 33.7441 103.022 34.1392 103.548 34.1392Z" fill="black" fill-opacity="0.2"/>
<path d="M150.315 259.375L151.179 260.764C151.377 261.082 151.377 261.478 151.179 261.796L150.315 263.185C149.753 264.088 149.961 265.263 150.797 265.92L152.084 266.929C152.379 267.16 152.514 267.532 152.437 267.899L152.1 269.5C151.881 270.54 152.478 271.574 153.489 271.904L155.043 272.413C155.399 272.529 155.654 272.832 155.707 273.203L155.937 274.823C156.087 275.875 157.004 276.642 158.064 276.608L159.699 276.554C160.074 276.541 160.417 276.739 160.593 277.07L161.364 278.513C161.865 279.45 162.987 279.859 163.973 279.462L165.491 278.853C165.839 278.713 166.228 278.782 166.507 279.032L167.725 280.124C168.517 280.834 169.71 280.834 170.502 280.124L171.72 279.032C171.999 278.781 172.388 278.713 172.736 278.853L174.254 279.462C175.24 279.859 176.362 279.45 176.863 278.513L177.634 277.07C177.811 276.739 178.153 276.542 178.528 276.554L180.163 276.608C181.226 276.642 182.14 275.875 182.29 274.823L182.521 273.203C182.573 272.832 182.828 272.529 183.184 272.413L184.739 271.904C185.749 271.574 186.346 270.54 186.127 269.5L185.79 267.899C185.713 267.532 185.848 267.16 186.143 266.929L187.43 265.92C188.267 265.263 188.474 264.088 187.912 263.185L187.048 261.796C186.85 261.478 186.85 261.082 187.048 260.764L187.912 259.375C188.474 258.472 188.267 257.297 187.43 256.641L186.143 255.631C185.848 255.4 185.713 255.028 185.79 254.661L186.127 253.061C186.346 252.02 185.749 250.986 184.739 250.656L183.184 250.147C182.828 250.031 182.573 249.728 182.521 249.357L182.29 247.737C182.14 246.685 181.223 245.919 180.163 245.952L178.528 246.006C178.153 246.018 177.811 245.821 177.634 245.49L176.863 244.047C176.362 243.11 175.24 242.701 174.254 243.098L172.736 243.707C172.388 243.847 171.999 243.779 171.72 243.528L170.502 242.436C170.106 242.081 169.61 241.904 169.114 241.904C168.617 241.904 168.121 242.081 167.725 242.436L166.507 243.528C166.228 243.779 165.839 243.847 165.491 243.708L163.973 243.098C162.987 242.701 161.865 243.11 161.364 244.048L160.593 245.49C160.417 245.821 160.075 246.019 159.699 246.006L158.065 245.952C157.002 245.918 156.087 246.685 155.937 247.737L155.707 249.357C155.654 249.728 155.4 250.031 155.043 250.147L153.489 250.656C152.478 250.986 151.881 252.02 152.1 253.061L152.437 254.661C152.514 255.028 152.379 255.4 152.084 255.631L150.797 256.641C149.961 257.297 149.753 258.473 150.315 259.375ZM151.478 257.508L152.765 256.499C153.393 256.006 153.681 255.215 153.516 254.434L153.179 252.833C153.076 252.345 153.357 251.859 153.831 251.704L155.386 251.195C156.145 250.947 156.686 250.302 156.798 249.512L157.029 247.893C157.099 247.398 157.529 247.038 158.028 247.054L159.663 247.108C160.462 247.134 161.19 246.714 161.566 246.01L162.337 244.567C162.572 244.127 163.099 243.935 163.562 244.121L165.08 244.731C165.821 245.028 166.65 244.882 167.244 244.349L168.461 243.257C168.833 242.923 169.394 242.923 169.766 243.257L170.983 244.349C171.374 244.699 171.866 244.882 172.367 244.882C172.629 244.882 172.893 244.833 173.147 244.731L174.665 244.121C175.128 243.935 175.655 244.126 175.891 244.567L176.661 246.01C177.037 246.713 177.768 247.134 178.564 247.108L180.199 247.054C180.699 247.038 181.128 247.398 181.198 247.893L181.429 249.512C181.542 250.302 182.083 250.947 182.841 251.195L184.396 251.704C184.871 251.859 185.151 252.345 185.048 252.833L184.711 254.434C184.547 255.215 184.835 256.006 185.462 256.498L186.75 257.508C187.142 257.816 187.24 258.369 186.976 258.793L186.112 260.181C185.69 260.859 185.69 261.701 186.112 262.378L186.976 263.767C187.24 264.191 187.142 264.744 186.75 265.052L185.463 266.061C184.835 266.554 184.547 267.345 184.711 268.126L185.048 269.727C185.151 270.215 184.871 270.701 184.396 270.856L182.841 271.365C182.083 271.613 181.542 272.258 181.429 273.048L181.198 274.667C181.128 275.162 180.698 275.521 180.199 275.506L178.564 275.452C177.767 275.427 177.037 275.846 176.661 276.55L175.891 277.993C175.655 278.433 175.128 278.625 174.665 278.439L173.147 277.829C172.407 277.532 171.578 277.678 170.983 278.211L169.766 279.303C169.394 279.636 168.833 279.636 168.461 279.303L167.244 278.211C166.65 277.678 165.821 277.532 165.08 277.829L163.562 278.439C163.099 278.625 162.572 278.434 162.337 277.993L161.566 276.55C161.19 275.846 160.46 275.426 159.663 275.452L158.028 275.506C157.53 275.522 157.1 275.162 157.029 274.667L156.798 273.048C156.686 272.258 156.145 271.613 155.386 271.365L153.831 270.856C153.357 270.701 153.076 270.215 153.179 269.727L153.516 268.126C153.681 267.345 153.393 266.554 152.765 266.062L151.478 265.052C151.085 264.744 150.987 264.191 151.251 263.767L152.115 262.379C152.537 261.701 152.537 260.859 152.115 260.182L151.251 258.793C150.987 258.369 151.085 257.816 151.478 257.508Z" fill="black" fill-opacity="0.1"/>
<path d="M155.004 259.902C155.306 259.943 155.584 259.732 155.625 259.43C156.064 256.197 157.661 253.224 160.123 251.057C162.608 248.871 165.8 247.666 169.114 247.666C172.427 247.666 175.62 248.871 178.104 251.057C180.566 253.224 182.163 256.197 182.602 259.43C182.643 259.732 182.921 259.943 183.223 259.902C183.525 259.861 183.736 259.583 183.695 259.282C183.22 255.786 181.493 252.571 178.832 250.229C176.146 247.866 172.695 246.564 169.113 246.564C165.532 246.564 162.08 247.866 159.395 250.229C156.734 252.571 155.007 255.786 154.532 259.282C154.491 259.583 154.702 259.861 155.004 259.902Z" fill="black" fill-opacity="0.1"/>
<path d="M154.534 263.295C155.012 266.786 156.741 269.997 159.401 272.336C162.086 274.696 165.535 275.996 169.114 275.996C172.693 275.996 176.143 274.696 178.828 272.334C181.489 269.995 183.217 266.783 183.694 263.29C183.735 262.988 183.524 262.71 183.222 262.669C183.197 262.665 183.172 262.664 183.147 262.664C182.875 262.664 182.639 262.864 182.601 263.14C182.16 266.371 180.561 269.342 178.1 271.506C175.617 273.691 172.425 274.894 169.114 274.894C165.803 274.894 162.612 273.691 160.129 271.508C157.668 269.344 156.069 266.374 155.627 263.145C155.585 262.843 155.307 262.632 155.006 262.674C154.704 262.715 154.493 262.993 154.534 263.295Z" fill="black" fill-opacity="0.1"/>
<path d="M164.553 261.968C166.238 261.968 167.506 261.246 167.506 259.277L167.506 256.04C167.506 254.071 166.238 253.349 164.553 253.349C162.89 253.349 161.6 254.071 161.6 256.04L161.6 259.277C161.6 261.246 162.89 261.968 164.553 261.968ZM163.175 256.04C163.175 255.143 163.7 254.749 164.553 254.749C165.406 254.749 165.909 255.143 165.909 256.04L165.909 259.277C165.909 260.174 165.406 260.568 164.553 260.568C163.7 260.568 163.175 260.174 163.175 259.277L163.175 256.04Z" fill="black" fill-opacity="0.1"/>
<path d="M174.223 269.406C175.907 269.406 177.176 268.685 177.176 266.716L177.176 263.478C177.176 261.509 175.907 260.787 174.223 260.787C172.56 260.787 171.269 261.509 171.269 263.478L171.269 266.716C171.269 268.684 172.56 269.406 174.223 269.406ZM172.844 263.478C172.844 262.581 173.369 262.187 174.223 262.187C175.076 262.187 175.579 262.581 175.579 263.478L175.579 266.716C175.579 267.613 175.076 268.006 174.223 268.006C173.369 268.006 172.844 267.613 172.844 266.716L172.844 263.478Z" fill="black" fill-opacity="0.1"/>
<path d="M165.406 270.26C165.669 270.26 165.931 270.15 166.063 269.866L174.091 253.786C174.157 253.677 174.179 253.567 174.179 253.458C174.179 253.064 173.829 252.649 173.326 252.649C173.019 252.649 172.713 252.802 172.582 253.064L164.553 269.078C164.509 269.188 164.487 269.297 164.487 269.428C164.487 269.932 164.969 270.26 165.406 270.26Z" fill="black" fill-opacity="0.1"/>
<path d="M12.7394 154.534L13.4752 155.717C13.6438 155.988 13.6438 156.325 13.4752 156.596L12.7394 157.778C12.2611 158.547 12.4376 159.548 13.15 160.107L14.246 160.967C14.4971 161.164 14.6123 161.48 14.5465 161.793L14.2596 163.156C14.073 164.042 14.5813 164.922 15.4419 165.204L16.7657 165.637C17.0692 165.736 17.2856 165.994 17.3307 166.31L17.5272 167.689C17.6549 168.585 18.4353 169.238 19.3386 169.209L20.7308 169.163C21.05 169.152 21.3415 169.321 21.4919 169.602L22.1482 170.831C22.5748 171.63 23.5301 171.977 24.3702 171.64L25.6627 171.12C25.959 171.001 26.2906 171.06 26.5282 171.273L27.5652 172.203C28.2392 172.808 29.2558 172.808 29.9298 172.203L30.9668 171.273C31.2044 171.06 31.536 171.001 31.8322 171.12L33.1247 171.64C33.9649 171.977 34.9201 171.629 35.3467 170.831L36.0031 169.602C36.1535 169.321 36.445 169.152 36.7642 169.163L38.1564 169.209C39.062 169.238 39.8401 168.585 39.9678 167.689L40.1643 166.31C40.2093 165.994 40.4258 165.736 40.7292 165.637L42.0531 165.204C42.9137 164.922 43.422 164.042 43.2354 163.156L42.9485 161.793C42.8827 161.48 42.9979 161.164 43.2491 160.967L44.345 160.107C45.0574 159.548 45.234 158.547 44.7557 157.778L44.0198 156.596C43.8512 156.325 43.8512 155.988 44.0198 155.717L44.7556 154.534C45.2339 153.766 45.0574 152.764 44.345 152.206L43.249 151.346C42.9978 151.149 42.8827 150.832 42.9485 150.52L43.2354 149.157C43.422 148.271 42.9137 147.391 42.0531 147.109L40.7292 146.676C40.4258 146.577 40.2094 146.319 40.1643 146.003L39.9678 144.624C39.84 143.727 39.0594 143.075 38.1564 143.104L36.7642 143.15C36.4447 143.16 36.1535 142.992 36.0031 142.71L35.3467 141.482C34.9201 140.683 33.9648 140.335 33.1247 140.673L31.8322 141.192C31.5361 141.311 31.2045 141.253 30.9668 141.04L29.9299 140.11C29.5928 139.807 29.1702 139.656 28.7475 139.656C28.3249 139.656 27.9022 139.808 27.5652 140.11L26.5283 141.04C26.2906 141.253 25.9589 141.311 25.6628 141.192L24.3703 140.673C23.5301 140.336 22.5748 140.683 22.1483 141.482L21.492 142.71C21.3415 142.992 21.0504 143.16 20.7308 143.15L19.3387 143.104C18.4337 143.075 17.6549 143.728 17.5273 144.624L17.3307 146.003C17.2857 146.319 17.0693 146.577 16.7658 146.676L15.4419 147.109C14.5814 147.391 14.0731 148.271 14.2596 149.157L14.5466 150.52C14.6123 150.832 14.4971 151.149 14.246 151.346L13.15 152.206C12.4376 152.764 12.2611 153.766 12.7394 154.534ZM13.7296 152.944L14.8255 152.085C15.3602 151.665 15.6054 150.992 15.4654 150.327L15.1785 148.964C15.0908 148.547 15.3296 148.134 15.7339 148.002L17.0577 147.569C17.7037 147.357 18.1644 146.808 18.2603 146.135L18.4568 144.756C18.5168 144.335 18.8828 144.028 19.3077 144.042L20.6999 144.088C21.3798 144.11 22 143.752 22.3201 143.153L22.9765 141.924C23.1768 141.549 23.6256 141.386 24.0203 141.544L25.3128 142.064C25.9433 142.317 26.6493 142.192 27.1552 141.739L28.1921 140.809C28.5087 140.525 28.9863 140.525 29.3029 140.809L30.3398 141.739C30.6723 142.037 31.0911 142.193 31.5182 142.193C31.741 142.193 31.9661 142.15 32.1823 142.064L33.4748 141.544C33.8695 141.386 34.3182 141.549 34.5186 141.924L35.1749 143.153C35.4951 143.752 36.1169 144.11 36.7951 144.088L38.1873 144.042C38.6131 144.029 38.9782 144.335 39.0382 144.756L39.2348 146.135C39.3306 146.808 39.7914 147.357 40.4373 147.569L41.7612 148.002C42.1654 148.134 42.4042 148.547 42.3166 148.963L42.0296 150.327C41.8896 150.991 42.1348 151.665 42.6695 152.085L43.7655 152.944C44.1001 153.207 44.183 153.677 43.9583 154.038L43.2225 155.221C42.8635 155.798 42.8635 156.515 43.2225 157.092L43.9583 158.274C44.183 158.635 44.1001 159.106 43.7655 159.368L42.6696 160.228C42.1348 160.647 41.8896 161.321 42.0296 161.986L42.3166 163.349C42.4042 163.765 42.1654 164.179 41.7612 164.311L40.4373 164.744C39.7914 164.955 39.3306 165.504 39.2348 166.177L39.0382 167.556C38.9782 167.977 38.6125 168.283 38.1873 168.27L36.7951 168.224C36.1164 168.203 35.4951 168.56 35.1749 169.16L34.5186 170.388C34.3181 170.763 33.8695 170.927 33.4748 170.768L32.1823 170.249C31.5517 169.996 30.8458 170.12 30.3398 170.574L29.3029 171.504C28.9863 171.788 28.5088 171.788 28.1922 171.504L27.1553 170.574C26.6494 170.12 25.9434 169.996 25.3128 170.249L24.0203 170.768C23.6258 170.927 23.177 170.764 22.9765 170.388L22.3202 169.16C22 168.56 21.3789 168.202 20.7 168.224L19.3078 168.27C18.883 168.284 18.5169 167.977 18.4569 167.556L18.2604 166.177C18.1645 165.504 17.7037 164.955 17.0578 164.744L15.7339 164.311C15.3297 164.179 15.0909 163.765 15.1785 163.349L15.4655 161.986C15.6055 161.321 15.3603 160.647 14.8256 160.228L13.7296 159.368C13.395 159.106 13.3121 158.636 13.5368 158.274L14.2726 157.092C14.6316 156.515 14.6316 155.798 14.2726 155.221L13.5368 154.038C13.312 153.677 13.3949 153.207 13.7296 152.944Z" fill="black" fill-opacity="0.08"/>
<path d="M16.7326 154.983C16.9896 155.018 17.226 154.838 17.261 154.581C17.6348 151.828 18.9953 149.296 21.0919 147.451C23.2074 145.589 25.9262 144.564 28.7475 144.564C31.5688 144.564 34.2877 145.589 36.4031 147.451C38.4997 149.296 39.8602 151.828 40.2341 154.581C40.269 154.838 40.5056 155.018 40.7625 154.983C41.0194 154.948 41.1994 154.711 41.1645 154.455C40.7602 151.478 39.2895 148.74 37.0234 146.746C34.7364 144.733 31.7973 143.625 28.7475 143.625C25.6976 143.625 22.7585 144.733 20.4715 146.746C18.2054 148.74 16.7347 151.478 16.3304 154.455C16.2956 154.711 16.4756 154.948 16.7326 154.983Z" fill="black" fill-opacity="0.08"/>
<path d="M16.3323 157.872C16.7396 160.845 18.2113 163.579 20.4765 165.571C22.7627 167.581 25.7001 168.688 28.7476 168.688C31.7957 168.688 34.7337 167.581 37.0201 165.57C39.2856 163.577 40.757 160.842 41.1633 157.868C41.1984 157.611 41.0186 157.374 40.7617 157.339C40.7402 157.336 40.7187 157.335 40.6976 157.335C40.4665 157.335 40.2651 157.505 40.233 157.74C39.8573 160.491 38.496 163.021 36.4001 164.865C34.2851 166.725 31.5674 167.749 28.7476 167.749C25.9284 167.749 23.2112 166.725 21.0965 164.866C19.0008 163.023 17.6392 160.494 17.2627 157.744C17.2275 157.488 16.9906 157.307 16.7338 157.343C16.4769 157.378 16.2972 157.615 16.3323 157.872Z" fill="black" fill-opacity="0.08"/>
<path d="M24.8639 156.742C26.2984 156.742 27.3789 156.128 27.3789 154.451L27.3789 151.694C27.3789 150.017 26.2984 149.402 24.8639 149.402C23.4481 149.402 22.349 150.017 22.349 151.694L22.349 154.451C22.349 156.128 23.4481 156.742 24.8639 156.742ZM23.6903 151.694C23.6903 150.93 24.1374 150.595 24.8639 150.595C25.5905 150.595 26.019 150.93 26.019 151.694L26.019 154.451C26.019 155.215 25.5905 155.55 24.8639 155.55C24.1374 155.55 23.6903 155.215 23.6903 154.451L23.6903 151.694Z" fill="black" fill-opacity="0.08"/>
<path d="M33.0982 163.076C34.5327 163.076 35.6132 162.462 35.6132 160.785L35.6132 158.028C35.6132 156.351 34.5327 155.736 33.0982 155.736C31.6824 155.736 30.5832 156.351 30.5832 158.028L30.5832 160.785C30.5832 162.462 31.6824 163.076 33.0982 163.076ZM31.9246 158.028C31.9246 157.264 32.3717 156.929 33.0982 156.929C33.8248 156.929 34.2533 157.264 34.2533 158.028L34.2533 160.785C34.2533 161.549 33.8248 161.884 33.0982 161.884C32.3717 161.884 31.9246 161.549 31.9246 160.785L31.9246 158.028Z" fill="black" fill-opacity="0.08"/>
<path d="M25.5905 163.803C25.8141 163.803 26.0376 163.71 26.1494 163.468L32.9865 149.775C33.0423 149.682 33.061 149.589 33.061 149.495C33.061 149.16 32.7629 148.806 32.3344 148.806C32.0736 148.806 31.8128 148.937 31.701 149.16L24.864 162.797C24.8267 162.89 24.8081 162.983 24.8081 163.095C24.8081 163.524 25.2179 163.803 25.5905 163.803Z" fill="black" fill-opacity="0.08"/>
</svg>
