<svg width="42" height="32" viewBox="0 0 42 32" fill="none" xmlns="http://www.w3.org/2000/svg">
<path d="M40.0739 9.64097H35.9422L33.8537 1.45032C33.5912 0.421159 32.5403 -0.202359 31.5114 0.0598944L26.7496 1.27412C26.4284 1.35599 26.2344 1.6828 26.3163 2.00395C26.3983 2.3251 26.725 2.51894 27.0461 2.43724L31.808 1.22301C32.1961 1.12433 32.5917 1.35918 32.6906 1.74695L32.9219 2.65429L1.45439 10.6783L1.22306 9.77099C1.17516 9.58313 1.20329 9.38782 1.30222 9.22113C1.40123 9.05444 1.55923 8.93624 1.74708 8.88833L23.3917 3.36903C23.7129 3.28716 23.9069 2.96035 23.825 2.6392C23.7431 2.31805 23.4165 2.12421 23.0952 2.20591L1.45045 7.72521C0.421291 7.98763 -0.202474 9.03837 0.0599435 10.0674L4.49848 27.4738C4.72038 28.3439 5.50566 28.9243 6.3651 28.9242C6.52211 28.9242 6.68174 28.9047 6.84072 28.8642L7.12488 28.7918V29.5303C7.12488 30.5924 7.98891 31.4564 9.05097 31.4564H40.0739C41.136 31.4564 42 30.5924 42 29.5303V11.5671C42 10.505 41.136 9.64097 40.0739 9.64097ZM7.12496 27.5531L6.54426 27.7012C6.1565 27.8001 5.76053 27.565 5.6616 27.1773L2.94473 16.5227L7.12496 15.4568V27.5531ZM7.12496 11.567V14.2181L2.64819 15.3597L1.75102 11.8412L7.54955 10.3626C7.28426 10.6928 7.12496 11.1115 7.12496 11.567ZM34.7036 9.64088H29.9329L34.4123 8.49868L34.7036 9.64088ZM33.2186 3.81717L34.1157 7.33564L25.0753 9.64097H10.3799L33.2186 3.81717ZM40.0739 30.2561H9.05105C8.65082 30.2561 8.32515 29.9305 8.32515 29.5303V28.0195V11.5671C8.32515 11.1668 8.65074 10.8412 9.05105 10.8412H40.0739C40.4741 10.8412 40.7997 11.1668 40.7997 11.5671V29.5303C40.7997 29.9305 40.4741 30.2561 40.0739 30.2561Z" fill="#1FC5A5"/>
<path d="M23.8992 24.4148H10.8228C10.4914 24.4148 10.2227 24.6834 10.2227 25.0149C10.2227 25.3464 10.4914 25.6151 10.8228 25.6151H23.8992C24.2306 25.6151 24.4994 25.3464 24.4994 25.0149C24.4994 24.6835 24.2307 24.4148 23.8992 24.4148Z" fill="#1FC5A5"/>
<path d="M33.8999 13.8619C33.0379 13.8619 32.2403 14.1402 31.5901 14.6105C30.9201 14.1251 30.1165 13.8619 29.2778 13.8619C27.0992 13.8619 25.3268 15.6343 25.3268 17.8129C25.327 19.9914 27.0994 21.7638 29.2779 21.7638C30.1166 21.7638 30.9201 21.5006 31.5901 21.0152C32.2403 21.4855 33.038 21.7638 33.8999 21.7638C36.0784 21.7638 37.8508 19.9914 37.8508 17.8129C37.8508 15.6343 36.0784 13.8619 33.8999 13.8619ZM29.9538 18.0002C29.9545 18.0156 29.9556 18.0309 29.9565 18.0463C29.9594 18.0966 29.9632 18.1468 29.968 18.1967C29.9691 18.2084 29.9702 18.22 29.9714 18.2317C30.0446 18.9335 30.3006 19.5928 30.7183 20.1559C30.2884 20.4212 29.7925 20.5634 29.2779 20.5634C27.7611 20.5634 26.5272 19.3295 26.5272 17.8128C26.5273 16.2962 27.7612 15.0622 29.2779 15.0622C29.7925 15.0622 30.2884 15.2044 30.7183 15.4697C30.3007 16.0328 30.0446 16.6921 29.9714 17.394C29.9702 17.4056 29.9691 17.4172 29.968 17.4288C29.9632 17.4788 29.9595 17.5289 29.9565 17.5792C29.9556 17.5946 29.9545 17.6099 29.9538 17.6253C29.9509 17.6875 29.949 17.75 29.949 17.8127C29.949 17.8755 29.9509 17.9379 29.9538 18.0002ZM33.9001 20.5635C33.1491 20.5635 32.4677 20.2607 31.9709 19.7711C31.9606 19.761 31.9505 19.7509 31.9404 19.7406C31.9176 19.7173 31.8948 19.6938 31.8728 19.6697C31.8667 19.663 31.8607 19.6563 31.8546 19.6496C31.8287 19.6207 31.8031 19.5915 31.7784 19.5615C31.7783 19.5614 31.7782 19.5612 31.778 19.5611C31.3855 19.0854 31.1494 18.4761 31.1494 17.8127C31.1493 17.1494 31.3855 16.5401 31.7781 16.0644C31.7782 16.0643 31.7783 16.0642 31.7783 16.0641C31.8031 16.034 31.8288 16.0048 31.8548 15.9759C31.8608 15.9692 31.8667 15.9626 31.8728 15.956C31.8949 15.9318 31.9176 15.9082 31.9406 15.8849C31.9506 15.8747 31.9606 15.8646 31.9708 15.8546C32.4677 15.3651 33.1491 15.0622 33.9001 15.0622C35.4168 15.0622 36.6507 16.2961 36.6507 17.8129C36.6507 19.3296 35.4168 20.5635 33.9001 20.5635Z" fill="#1FC5A5"/>
<path d="M15.0994 14.2521H12.4674C11.2296 14.2521 10.2227 15.259 10.2227 16.4968V19.1288C10.2226 20.3666 11.2296 21.3735 12.4674 21.3735H15.0994C16.3371 21.3735 17.3441 20.3666 17.3441 19.1288V16.4968C17.3441 15.2591 16.3372 14.2521 15.0994 14.2521ZM16.1437 18.1352H14.8635C14.5321 18.1352 14.2633 18.4038 14.2633 18.7353C14.2633 19.0668 14.532 19.3355 14.8635 19.3355H16.1231C16.0269 19.8127 15.6045 20.1733 15.0993 20.1733H12.4673C11.962 20.1733 11.5397 19.8128 11.4435 19.3355H12.7031C13.0345 19.3355 13.3033 19.0668 13.3033 18.7353C13.3033 18.4038 13.0346 18.1352 12.7031 18.1352H11.4229V17.6151H12.7031C13.0345 17.6151 13.3033 17.3465 13.3033 17.015C13.3033 16.6836 13.0346 16.4148 12.7031 16.4148H11.427C11.469 15.8772 11.919 15.4523 12.4673 15.4523H15.0993C15.6476 15.4523 16.0976 15.8772 16.1396 16.4148H14.8635C14.5321 16.4148 14.2633 16.6835 14.2633 17.015C14.2633 17.3464 14.532 17.6151 14.8635 17.6151H16.1437V18.1352Z" fill="#1FC5A5"/>
<path d="M37.9902 27.0554H17.0942C16.7628 27.0554 16.494 27.3241 16.494 27.6556C16.494 27.987 16.7627 28.2557 17.0942 28.2557H37.9902C38.3216 28.2557 38.5903 27.987 38.5903 27.6556C38.5903 27.3241 38.3217 27.0554 37.9902 27.0554Z" fill="#1FC5A5"/>
<path d="M13.2684 27.0554H10.8228C10.4914 27.0554 10.2227 27.3241 10.2227 27.6556C10.2227 27.987 10.4913 28.2557 10.8228 28.2557H13.2684C13.5998 28.2557 13.8685 27.987 13.8685 27.6556C13.8685 27.3241 13.5998 27.0554 13.2684 27.0554Z" fill="#1FC5A5"/>
</svg>
