<svg width="32" height="22" viewBox="0 0 32 22" fill="none" xmlns="http://www.w3.org/2000/svg">
<path d="M30 0H11C10.734 0 10.48 0.106 10.292 0.292L9 1.586L7.708 0.292C7.52 0.106 7.266 0 7 0H2C0.898 0 0 0.898 0 2V20C0 21.104 0.898 22 2 22H7C7.266 22 7.52 21.894 7.708 21.708L9 20.414L10.292 21.706C10.48 21.894 10.734 22 11 22H30C31.104 22 32 21.104 32 20V2C32 0.898 31.104 0 30 0Z" fill="#2EC89E"/>
<path d="M17 10C15.346 10 14 8.654 14 7C14 5.346 15.346 4 17 4C18.654 4 20 5.346 20 7C20 8.654 18.654 10 17 10ZM17 6C16.448 6 16 6.448 16 7C16 7.552 16.448 8 17 8C17.552 8 18 7.552 18 7C18 6.448 17.552 6 17 6Z" fill="#FAFAFA"/>
<path d="M23 18C21.346 18 20 16.654 20 15C20 13.346 21.346 12 23 12C24.654 12 26 13.346 26 15C26 16.654 24.654 18 23 18ZM23 14C22.45 14 22 14.45 22 15C22 15.55 22.45 16 23 16C23.55 16 24 15.55 24 15C24 14.45 23.55 14 23 14Z" fill="#FAFAFA"/>
<path d="M15 18C14.774 18 14.548 17.924 14.36 17.768C13.936 17.414 13.878 16.784 14.232 16.36L24.232 4.36C24.588 3.934 25.218 3.882 25.64 4.232C26.064 4.586 26.12 5.216 25.766 5.642L15.766 17.642C15.57 17.876 15.286 18 15 18Z" fill="#FAFAFA"/>
<path d="M10 4H8V6H10V4Z" fill="#FAFAFA"/>
<path d="M10 16H8V18H10V16Z" fill="#FAFAFA"/>
<path d="M10 12H8V14H10V12Z" fill="#FAFAFA"/>
<path d="M10 8H8V10H10V8Z" fill="#FAFAFA"/>
</svg>
